<svg xmlns="http://www.w3.org/2000/svg" viewBox="0 0 500 500"><g id="freepik--Floor--inject-34"><path d="M412.48,255.92c-90.32-52.15-236.29-52.15-326,0S-2.81,392.63,87.51,444.78s236.3,52.15,326,0S502.81,308.07,412.48,255.92Z" style="fill:#f5f5f5"></path></g><g id="freepik--Shadows--inject-34"><path d="M430.09,342.06c6.2-3.58,16.23-3.58,22.4,0s6.13,9.4-.08,13-16.23,3.58-22.39,0S423.88,345.65,430.09,342.06Z" style="fill:#e6e6e6"></path><path d="M75.49,344.54c-6.53-3.77-17.1-3.77-23.6,0s-6.46,9.9.08,13.68,17.1,3.77,23.6,0S82,348.32,75.49,344.54Z" style="fill:#e6e6e6"></path><path d="M248.05,227.62c-13-7.5-34-7.5-46.93,0s-12.86,19.68.15,27.19,34,7.51,46.94,0S261.06,235.13,248.05,227.62Z" style="fill:#e6e6e6"></path><path d="M369.33,409.64c-21.83-12.6-57.09-12.6-78.77,0s-21.56,33,.26,45.62,57.08,12.6,78.76,0S391.15,422.24,369.33,409.64Z" style="fill:#e6e6e6"></path><path d="M310,307.65c-20.93-12.09-54.75-12.09-75.54,0s-20.68,31.67.25,43.75,54.75,12.09,75.54,0S330.88,319.73,310,307.65Z" style="fill:#e6e6e6"></path><path d="M171.22,350.14c-20.45-11.8-53.48-11.8-73.8,0s-20.2,30.94.24,42.74,53.49,11.81,73.8,0S191.66,361.94,171.22,350.14Z" style="fill:#e6e6e6"></path></g><g id="freepik--Windows--inject-34"><polygon points="140 147.1 140.11 186.37 137.92 187.63 137.81 148.36 140 147.1" style="fill:#e0e0e0"></polygon><polygon points="137.81 148.36 137.81 148.36 137.92 187.63 136.03 186.53 135.92 149.46 137.81 148.36" style="fill:#f0f0f0"></polygon><rect x="137.64" y="147.73" width="2.52" transform="translate(-55.26 89.25) rotate(-30)" style="fill:#e0e0e0"></rect><polygon points="137.82 150.13 137.81 148.36 140 147.1 140 148.87 137.82 150.13 137.82 150.13" style="opacity:0.2"></polygon><polygon points="137.82 150.13 136.28 149.24 137.81 148.36 137.81 148.36 137.82 150.13" style="opacity:0.2"></polygon><rect x="137.64" y="147.73" width="2.52" transform="translate(-55.26 89.25) rotate(-30)" style="fill:#e0e0e0"></rect><polygon points="140 105.02 140.11 144.29 137.92 145.55 137.81 106.28 140 105.02" style="fill:#e0e0e0"></polygon><polygon points="137.81 106.28 137.81 106.28 137.92 145.55 136.03 144.44 135.92 107.37 137.81 106.28" style="fill:#f0f0f0"></polygon><rect x="137.64" y="105.65" width="2.52" transform="translate(-34.21 83.6) rotate(-30)" style="fill:#e0e0e0"></rect><polygon points="137.82 108.04 137.81 106.28 140 105.02 140 106.78 137.82 108.04 137.82 108.04" style="opacity:0.2"></polygon><polygon points="137.82 108.04 136.28 107.16 137.81 106.28 137.81 106.28 137.82 108.04" style="opacity:0.2"></polygon><rect x="137.64" y="105.65" width="2.52" transform="translate(-34.21 83.61) rotate(-30)" style="fill:#e0e0e0"></rect><polygon points="140 62.94 140.11 102.2 137.92 103.47 137.81 64.2 140 62.94" style="fill:#e0e0e0"></polygon><polygon points="137.81 64.2 137.81 64.2 137.92 103.47 136.03 102.36 135.92 65.29 137.81 64.2" style="fill:#f0f0f0"></polygon><rect x="137.64" y="63.57" width="2.52" transform="translate(-13.17 77.96) rotate(-30)" style="fill:#e0e0e0"></rect><polygon points="137.82 65.96 137.81 64.2 140 62.94 140 64.7 137.82 65.96 137.82 65.96" style="opacity:0.2"></polygon><polygon points="137.82 65.96 136.28 65.08 137.81 64.2 137.81 64.2 137.82 65.96" style="opacity:0.2"></polygon><rect x="137.64" y="63.57" width="2.52" transform="translate(-13.17 77.96) rotate(-30)" style="fill:#e0e0e0"></rect><polygon points="67.77 189.19 67.88 228.45 65.69 229.71 65.58 190.45 67.77 189.19" style="fill:#e0e0e0"></polygon><polygon points="65.58 190.45 65.58 190.45 65.69 229.71 63.8 228.61 63.69 191.54 65.58 190.45" style="fill:#f0f0f0"></polygon><rect x="65.41" y="189.82" width="2.52" transform="translate(-85.97 58.76) rotate(-30)" style="fill:#e0e0e0"></rect><polygon points="65.59 192.21 65.58 190.45 67.77 189.19 67.77 190.95 65.59 192.21 65.59 192.21" style="opacity:0.2"></polygon><polygon points="65.59 192.21 64.06 191.33 65.58 190.45 65.58 190.45 65.59 192.21" style="opacity:0.2"></polygon><rect x="65.41" y="189.82" width="2.52" transform="translate(-85.97 58.76) rotate(-30)" style="fill:#e0e0e0"></rect><polygon points="67.77 147.1 67.88 186.37 65.69 187.63 65.58 148.36 67.77 147.1" style="fill:#e0e0e0"></polygon><polygon points="65.58 148.36 65.58 148.36 65.69 187.63 63.8 186.53 63.69 149.46 65.58 148.36" style="fill:#f0f0f0"></polygon><rect x="65.41" y="147.73" width="2.52" transform="matrix(0.87, -0.5, 0.5, 0.87, -64.94, 53.14)" style="fill:#e0e0e0"></rect><polygon points="65.59 150.13 65.58 148.36 67.77 147.1 67.77 148.87 65.59 150.13 65.59 150.13" style="opacity:0.2"></polygon><polygon points="65.59 150.13 64.06 149.24 65.58 148.36 65.58 148.36 65.59 150.13" style="opacity:0.2"></polygon><rect x="65.41" y="147.73" width="2.52" transform="matrix(0.87, -0.5, 0.5, 0.87, -64.94, 53.14)" style="fill:#e0e0e0"></rect><polygon points="67.77 105.02 67.88 144.29 65.69 145.55 65.58 106.28 67.77 105.02" style="fill:#e0e0e0"></polygon><polygon points="65.58 106.28 65.58 106.28 65.69 145.55 63.8 144.44 63.69 107.37 65.58 106.28" style="fill:#f0f0f0"></polygon><rect x="65.41" y="105.65" width="2.52" transform="translate(-43.89 47.49) rotate(-30)" style="fill:#e0e0e0"></rect><polygon points="65.59 108.04 65.58 106.28 67.77 105.02 67.77 106.78 65.59 108.04 65.59 108.04" style="opacity:0.2"></polygon><polygon points="65.59 108.04 64.06 107.16 65.58 106.28 65.58 106.28 65.59 108.04" style="opacity:0.2"></polygon><rect x="65.41" y="105.65" width="2.52" transform="translate(-43.89 47.49) rotate(-30)" style="fill:#e0e0e0"></rect><polygon points="166.29 131.92 164.39 130.82 164.5 170.08 166.4 171.19 166.29 131.92" style="fill:#f0f0f0"></polygon><polygon points="166.4 171.19 164.5 170.08 109.73 201.71 111.63 202.81 166.4 171.19" style="fill:#f5f5f5"></polygon><path d="M168.6,172.44l-59.15,34.15-.13-44.29,59.15-34.15Zm-57,30.37,54.77-31.62-.11-39.27-54.78,31.63.12,39.26" style="fill:#e0e0e0"></path><polygon points="168.47 128.15 166.57 127.04 107.42 161.19 109.32 162.3 168.47 128.15" style="fill:#f5f5f5"></polygon><polygon points="109.32 162.3 107.42 161.19 107.55 205.48 109.45 206.59 109.32 162.3" style="fill:#f0f0f0"></polygon><polygon points="166.29 89.84 164.39 88.73 164.5 128 166.4 129.1 166.29 89.84" style="fill:#f0f0f0"></polygon><polygon points="166.4 129.1 164.5 128 109.73 159.63 111.63 160.73 166.4 129.1" style="fill:#f5f5f5"></polygon><path d="M168.6,130.35,109.45,164.5l-.13-44.29,59.15-34.15Zm-57,30.38L166.4,129.1l-.11-39.26-54.78,31.62.12,39.27" style="fill:#e0e0e0"></path><polygon points="168.47 86.06 166.57 84.96 107.42 119.11 109.32 120.21 168.47 86.06" style="fill:#f5f5f5"></polygon><polygon points="109.32 120.21 107.42 119.11 107.55 163.4 109.45 164.5 109.32 120.21" style="fill:#f0f0f0"></polygon><polygon points="166.29 47.75 164.39 46.65 164.5 85.92 166.4 87.02 166.29 47.75" style="fill:#f0f0f0"></polygon><polygon points="166.4 87.02 164.5 85.92 109.73 117.54 111.63 118.65 166.4 87.02" style="fill:#f5f5f5"></polygon><path d="M168.6,88.27l-59.15,34.15-.13-44.29L168.47,44Zm-57,30.38L166.4,87l-.11-39.27L111.51,79.38l.12,39.27" style="fill:#e0e0e0"></path><polygon points="168.47 43.98 166.57 42.88 107.42 77.03 109.32 78.13 168.47 43.98" style="fill:#f5f5f5"></polygon><polygon points="109.32 78.13 107.42 77.03 107.55 121.31 109.45 122.42 109.32 78.13" style="fill:#f0f0f0"></polygon><polygon points="94.06 174 92.16 172.9 92.28 212.17 94.17 213.27 94.06 174" style="fill:#f0f0f0"></polygon><polygon points="94.17 213.27 92.28 212.17 37.5 243.79 39.4 244.9 94.17 213.27" style="fill:#f5f5f5"></polygon><path d="M96.37,214.52,37.22,248.67l-.13-44.29,59.15-34.15Zm-57,30.38,54.77-31.63L94.06,174,39.29,205.63l.11,39.27" style="fill:#e0e0e0"></path><polygon points="96.24 170.23 94.34 169.13 35.2 203.28 37.09 204.38 96.24 170.23" style="fill:#f5f5f5"></polygon><polygon points="37.09 204.38 35.2 203.28 35.32 247.56 37.22 248.67 37.09 204.38" style="fill:#f0f0f0"></polygon><polygon points="94.06 131.92 92.16 130.82 92.28 170.08 94.17 171.19 94.06 131.92" style="fill:#f0f0f0"></polygon><polygon points="94.17 171.19 92.28 170.08 37.5 201.71 39.4 202.81 94.17 171.19" style="fill:#f5f5f5"></polygon><path d="M96.37,172.44,37.22,206.59l-.13-44.29,59.15-34.15Zm-57,30.37,54.77-31.62-.11-39.27L39.29,163.55l.11,39.26" style="fill:#e0e0e0"></path><polygon points="96.24 128.15 94.34 127.04 35.2 161.19 37.09 162.3 96.24 128.15" style="fill:#f5f5f5"></polygon><polygon points="37.09 162.3 35.2 161.19 35.32 205.48 37.22 206.59 37.09 162.3" style="fill:#f0f0f0"></polygon><polygon points="94.06 89.84 92.16 88.73 92.28 128 94.17 129.1 94.06 89.84" style="fill:#f0f0f0"></polygon><polygon points="94.17 129.1 92.28 128 37.5 159.63 39.4 160.73 94.17 129.1" style="fill:#f5f5f5"></polygon><path d="M96.37,130.35,37.22,164.5l-.13-44.29L96.24,86.06Zm-57,30.38L94.17,129.1l-.11-39.26L39.29,121.46l.11,39.27" style="fill:#e0e0e0"></path><polygon points="96.24 86.06 94.34 84.96 35.2 119.11 37.09 120.21 96.24 86.06" style="fill:#f5f5f5"></polygon><polygon points="37.09 120.21 35.2 119.11 35.32 163.4 37.22 164.5 37.09 120.21" style="fill:#f0f0f0"></polygon></g><g id="freepik--Furniture--inject-34"><path d="M329.25,232.73l124.11,71.66a1.79,1.79,0,0,1,0,3.11l-48.05,27.63a5.4,5.4,0,0,1-5.39,0L275.81,263.47a1.79,1.79,0,0,1,0-3.11l48-27.63A5.4,5.4,0,0,1,329.25,232.73Z" style="opacity:0.1"></path><polygon points="280.9 192 280.9 263.36 402.26 333.06 402.26 261.7 280.9 192" style="fill:#e0e0e0"></polygon><polygon points="450.13 234.15 450.13 305.5 402.26 333.06 402.26 261.7 450.13 234.15" style="fill:#e0e0e0"></polygon><polygon points="280.9 192 280.9 263.36 402.26 333.06 402.26 261.7 280.9 192" style="opacity:0.1"></polygon><polygon points="450.13 234.15 450.13 305.5 402.26 333.06 402.26 261.7 450.13 234.15" style="opacity:0.2"></polygon><polygon points="339.73 270.37 396.53 303 396.53 286.25 339.73 253.62 339.73 270.37" style="fill:#e0e0e0"></polygon><polygon points="396.53 282.24 396.53 265.02 339.73 232.4 339.73 249.62 396.53 282.24" style="fill:#e0e0e0"></polygon><polygon points="333.99 229.1 286.63 201.91 286.63 219.13 333.99 246.32 333.99 229.1" style="fill:#e0e0e0"></polygon><polygon points="339.73 290.53 396.53 323.15 396.53 307 339.73 274.38 339.73 290.53" style="fill:#e0e0e0"></polygon><polygon points="333.99 250.33 286.63 223.13 286.63 239.88 333.99 267.08 333.99 250.33" style="fill:#e0e0e0"></polygon><polygon points="286.63 243.88 286.63 260.04 333.99 287.24 333.99 271.08 286.63 243.88" style="fill:#e0e0e0"></polygon><polygon points="279.18 185.35 403.37 256.69 451.85 228.78 327.59 157.4 279.18 185.35" style="fill:#ebebeb"></polygon><polygon points="279.18 185.35 279.18 192.64 403.37 263.98 403.37 256.69 279.18 185.35" style="fill:#e0e0e0"></polygon><polygon points="451.85 228.78 451.85 236.07 403.37 263.98 403.37 256.69 451.85 228.78" style="fill:#e0e0e0"></polygon><polygon points="451.85 228.78 451.85 236.07 403.37 263.98 403.37 256.69 451.85 228.78" style="opacity:0.1"></polygon></g><g id="freepik--Lamp--inject-34"><path d="M238.32,235.1c-.09,2-1.41,3.87-4,5.36-5.32,3.09-14,3.09-19.33,0-2.57-1.49-3.91-3.41-4-5.36h0v4.32h0c0,2,1.35,4.05,4,5.59,5.35,3.1,14,3.1,19.33,0,2.66-1.54,4-3.57,4-5.59h0V235.1Z" style="fill:#e0e0e0"></path><path d="M215,240.46c5.35,3.09,14,3.09,19.33,0,2.55-1.49,3.87-3.41,4-5.36a5,5,0,0,0-.56-2.47,8.6,8.6,0,0,0-3.47-3.37c-5.35-3.09-14-3.09-19.32,0a8.41,8.41,0,0,0-3.43,3.37,4.77,4.77,0,0,0-.53,2.47C211.12,237.05,212.46,239,215,240.46Z" style="fill:#f0f0f0"></path><rect x="213.94" y="114.07" width="0.4" height="36.02" style="fill:#e0e0e0"></rect><path d="M215.14,150.49a1,1,0,1,1-1-1A1,1,0,0,1,215.14,150.49Z" style="fill:#f0f0f0"></path><path d="M227.11,101.08h-4.9v132.6h0a1.23,1.23,0,0,0,.72,1,3.85,3.85,0,0,0,3.47,0,1.21,1.21,0,0,0,.71-1h0Z" style="fill:#e0e0e0"></path><path d="M252.87,107.71h0c-3.14-10.92-15.13-33.46-15.13-33.46h0c1.37,2.68.24,5.7-3.4,7.82-5.32,3.1-14,3.1-19.33,0-3.67-2.12-4.84-5.14-3.49-7.82h0s-12,22.54-15.13,33.46h0c-2.13,5.45.48,11.4,7.83,15.64,11.35,6.56,29.7,6.56,41,0C252.52,119.11,255.06,113.16,252.87,107.71Z" style="fill:#f0f0f0"></path><path d="M237.76,74.25a8.48,8.48,0,0,0-3.47-3.37c-5.35-3.09-14-3.09-19.32,0a8.29,8.29,0,0,0-3.43,3.37c-1.35,2.68-.18,5.7,3.49,7.82,5.35,3.1,14,3.1,19.33,0C238,80,239.13,76.93,237.76,74.25Z" style="fill:#e0e0e0"></path><path d="M237.76,74.25a8.48,8.48,0,0,0-3.47-3.37c-5.35-3.09-14-3.09-19.32,0a8.29,8.29,0,0,0-3.43,3.37c-1.35,2.68-.18,5.7,3.49,7.82,5.35,3.1,14,3.1,19.33,0C238,80,239.13,76.93,237.76,74.25Z" style="opacity:0.1"></path></g><g id="freepik--Plants--inject-34"><path d="M426.23,321.45l15,.44,15-.44c.65,10.15-1.33,20.49-4.06,25.54h0a6.86,6.86,0,0,1-3,3c-4.44,2.56-11.6,2.56-16,0a6.74,6.74,0,0,1-3-3.1C427.54,341.83,425.58,331.55,426.23,321.45Z" style="fill:#fff"></path><path d="M430.66,315.3c-5.88,3.4-5.91,8.91-.07,12.3s15.36,3.4,21.25,0,5.92-8.9.07-12.3S436.55,311.9,430.66,315.3Z" style="fill:#ebebeb"></path><path d="M433,316.65c-4.59,2.65-4.62,7-.05,9.6s12,2.65,16.57,0,4.62-6.95.06-9.6S437.58,314,433,316.65Z" style="fill:#e0e0e0"></path><g style="opacity:0.15"><path d="M433,316.65c-4.59,2.65-4.62,7-.05,9.6s12,2.65,16.57,0,4.62-6.95.06-9.6S437.58,314,433,316.65Z"></path></g><path d="M448.91,290.71c2.45-3,5.29-5.76,7.53-8.95,1.52-2.18,2.8-4.84,2.16-7.42a6.62,6.62,0,0,0-5.26-4.63,10.07,10.07,0,0,0-7.06,1.57,21.84,21.84,0,0,0-5.34,5.08,53,53,0,0,0-11.16,37.86,7.94,7.94,0,0,0,1.39,4.35,4.36,4.36,0,0,0,4.49,1.37c4.1-1.21,3.55-6.74,4.22-10a45.83,45.83,0,0,1,4.7-12.77A44.77,44.77,0,0,1,448.91,290.71Z" style="fill:#FF2000"></path><path d="M448.91,290.71c2.45-3,5.29-5.76,7.53-8.95,1.52-2.18,2.8-4.84,2.16-7.42a6.62,6.62,0,0,0-5.26-4.63,10.07,10.07,0,0,0-7.06,1.57,21.84,21.84,0,0,0-5.34,5.08,53,53,0,0,0-11.16,37.86,7.94,7.94,0,0,0,1.39,4.35,4.36,4.36,0,0,0,4.49,1.37c4.1-1.21,3.55-6.74,4.22-10a45.83,45.83,0,0,1,4.7-12.77A44.77,44.77,0,0,1,448.91,290.71Z" style="opacity:0.2"></path><path d="M435.41,315.82a.36.36,0,0,0,.29-.33c.29-6.57,2.42-29,17.87-41.72a.36.36,0,0,0-.45-.55c-15.68,12.91-17.85,35.59-18.14,42.23a.37.37,0,0,0,.35.38Z" style="fill:#f0f0f0"></path><path d="M433.15,316.53a11,11,0,0,0,5,7,14.1,14.1,0,0,0,7.59,1.27,33.17,33.17,0,0,0,7.71-1.83c1.24-.41,2.62-1,2.75-2.51a2.73,2.73,0,0,0-.88-2.16,7.79,7.79,0,0,0-.8-.69.79.79,0,0,1,.43-1.42,18,18,0,0,0,2.19-.28,9.71,9.71,0,0,0,4.61-2.08,7.58,7.58,0,0,0,2.13-3.16,2.94,2.94,0,0,0-.3-3.09,3.37,3.37,0,0,0-1.71-.75q-.83-.18-1.65-.3a.73.73,0,0,1-.17-1.4l2.33-1a4.39,4.39,0,0,0,1.77-1.1,3.89,3.89,0,0,0,.45-3.21c-.29-1.46-.79-2.87-1.14-4.32a9.28,9.28,0,0,1-.15-4.41,37.21,37.21,0,0,0-13.05.87,9.47,9.47,0,0,0-3.57,1.56,5.23,5.23,0,0,0-1.67,4.8.34.34,0,0,1-.64.18l-1.49-2.75a1.77,1.77,0,0,0-2.31-.74,10.72,10.72,0,0,0-3.41,2.68,5.9,5.9,0,0,0-1.46,4.36,38.39,38.39,0,0,0,1.09,6.4.59.59,0,0,1-.93.63l-.07-.05a2,2,0,0,0-1.4-.41c-1.32.16-1.66,1.49-1.74,2.63A21.84,21.84,0,0,0,433.15,316.53Z" style="fill:#FF2000"></path><path d="M433.15,316.53a11,11,0,0,0,5,7,14.1,14.1,0,0,0,7.59,1.27,33.17,33.17,0,0,0,7.71-1.83c1.24-.41,2.62-1,2.75-2.51a2.73,2.73,0,0,0-.88-2.16,7.79,7.79,0,0,0-.8-.69.79.79,0,0,1,.43-1.42,18,18,0,0,0,2.19-.28,9.71,9.71,0,0,0,4.61-2.08,7.58,7.58,0,0,0,2.13-3.16,2.94,2.94,0,0,0-.3-3.09,3.37,3.37,0,0,0-1.71-.75q-.83-.18-1.65-.3a.73.73,0,0,1-.17-1.4l2.33-1a4.39,4.39,0,0,0,1.77-1.1,3.89,3.89,0,0,0,.45-3.21c-.29-1.46-.79-2.87-1.14-4.32a9.28,9.28,0,0,1-.15-4.41,37.21,37.21,0,0,0-13.05.87,9.47,9.47,0,0,0-3.57,1.56,5.23,5.23,0,0,0-1.67,4.8.34.34,0,0,1-.64.18l-1.49-2.75a1.77,1.77,0,0,0-2.31-.74,10.72,10.72,0,0,0-3.41,2.68,5.9,5.9,0,0,0-1.46,4.36,38.39,38.39,0,0,0,1.09,6.4.59.59,0,0,1-.93.63l-.07-.05a2,2,0,0,0-1.4-.41c-1.32.16-1.66,1.49-1.74,2.63A21.84,21.84,0,0,0,433.15,316.53Z" style="opacity:0.2"></path><path d="M433.15,316.53a11,11,0,0,0,5,7,14.1,14.1,0,0,0,7.59,1.27,33.17,33.17,0,0,0,7.71-1.83c1.24-.41,2.62-1,2.75-2.51a2.73,2.73,0,0,0-.88-2.16,7.79,7.79,0,0,0-.8-.69.79.79,0,0,1,.43-1.42,18,18,0,0,0,2.19-.28,9.71,9.71,0,0,0,4.61-2.08,7.58,7.58,0,0,0,2.13-3.16,2.94,2.94,0,0,0-.3-3.09,3.37,3.37,0,0,0-1.71-.75q-.83-.18-1.65-.3a.73.73,0,0,1-.17-1.4l2.33-1a4.39,4.39,0,0,0,1.77-1.1,3.89,3.89,0,0,0,.45-3.21c-.29-1.46-.79-2.87-1.14-4.32a9.28,9.28,0,0,1-.15-4.41,37.21,37.21,0,0,0-13.05.87,9.47,9.47,0,0,0-3.57,1.56,5.23,5.23,0,0,0-1.67,4.8.34.34,0,0,1-.64.18l-1.49-2.75a1.77,1.77,0,0,0-2.31-.74,10.72,10.72,0,0,0-3.41,2.68,5.9,5.9,0,0,0-1.46,4.36,38.39,38.39,0,0,0,1.09,6.4.59.59,0,0,1-.93.63l-.07-.05a2,2,0,0,0-1.4-.41c-1.32.16-1.66,1.49-1.74,2.63A21.84,21.84,0,0,0,433.15,316.53Z" style="fill:#fff;opacity:0.2"></path><path d="M440.08,323.13A51.36,51.36,0,0,1,443.59,313a.34.34,0,0,1,.12-.27c.08-.18.16-.35.25-.53a33.25,33.25,0,0,0-3.48-11.66.35.35,0,0,1,.13-.48.36.36,0,0,1,.49.13A33.7,33.7,0,0,1,444.53,311a47.71,47.71,0,0,1,15-18,.36.36,0,1,1,.41.59c-7.55,5.25-12.32,12.54-15.21,18.58a21.94,21.94,0,0,1,12.44-1.68.35.35,0,0,1,.29.42.37.37,0,0,1-.28.28h-.14c-.07,0-6.9-1.25-12.81,2.05a52.35,52.35,0,0,0-3.48,10.08.36.36,0,0,1-.28.28h-.14A.35.35,0,0,1,440.08,323.13Z" style="fill:#f0f0f0"></path><path d="M79.56,322.82l-15.83.46-15.83-.46c-.68,10.69,1.4,21.59,4.28,26.91h0a7.23,7.23,0,0,0,3.14,3.19c4.67,2.7,12.22,2.7,16.86,0a7,7,0,0,0,3.13-3.27C78.18,344.3,80.24,333.46,79.56,322.82Z" style="fill:#fff"></path><path d="M74.89,316.33c6.2,3.59,6.24,9.39.07,13s-16.18,3.59-22.39,0-6.23-9.38-.07-13S68.69,312.75,74.89,316.33Z" style="fill:#ebebeb"></path><path d="M72.44,317.76c4.84,2.79,4.86,7.32,0,10.12s-12.63,2.79-17.46,0-4.87-7.33-.06-10.12S67.6,315,72.44,317.76Z" style="fill:#e0e0e0"></path><g style="opacity:0.15"><path d="M72.44,317.76c4.84,2.79,4.86,7.32,0,10.12s-12.63,2.79-17.46,0-4.87-7.33-.06-10.12S67.6,315,72.44,317.76Z"></path></g><path d="M89.76,255.26c-35.68,11.68-36,35.55-28,52.55,2,3.44,8.17,5.29,13.51-15.85l-9.37,1.2,10.92-5.54,2.84-8.48-9.1.68L82.15,275A171.38,171.38,0,0,1,89.76,255.26Z" style="fill:#FF2000"></path><path d="M89.76,255.26c-35.68,11.68-36,35.55-28,52.55,2,3.44,8.17,5.29,13.51-15.85l-9.37,1.2,10.92-5.54,2.84-8.48-9.1.68L82.15,275A171.38,171.38,0,0,1,89.76,255.26Z" style="opacity:0.2"></path><path d="M89.76,255.26c-35.68,11.68-36,35.55-28,52.55,2,3.44,8.17,5.29,13.51-15.85l-9.37,1.2,10.92-5.54,2.84-8.48-9.1.68L82.15,275A171.38,171.38,0,0,1,89.76,255.26Z" style="fill:#fff;opacity:0.2"></path><path d="M79.67,261.23C60.86,275.51,59.16,291.88,64.47,309,62.59,293.92,60.56,278.7,79.67,261.23Z" style="fill:#fff"></path><path d="M29.33,279.5c35.17,5,39.44,27.13,34.77,44.3-1.32,3.54-6.73,6.28-15.22-12.52l8.93-.44L46.72,307.5l-4-7.42,8.59-.89-11.57-2.6A163.18,163.18,0,0,0,29.33,279.5Z" style="fill:#FF2000"></path><path d="M29.33,279.5c35.17,5,39.44,27.13,34.77,44.3-1.32,3.54-6.73,6.28-15.22-12.52l8.93-.44L46.72,307.5l-4-7.42,8.59-.89-11.57-2.6A163.18,163.18,0,0,0,29.33,279.5Z" style="fill:#fff;opacity:0.2"></path><path d="M29.33,279.5c35.17,5,39.44,27.13,34.77,44.3-1.32,3.54-6.73,6.28-15.22-12.52l8.93-.44L46.72,307.5l-4-7.42,8.59-.89-11.57-2.6A163.18,163.18,0,0,0,29.33,279.5Z" style="opacity:0.1"></path><path d="M39.72,283.39c19.9,10.17,24.2,25.14,22.09,41.94C61.06,311,60.42,296.49,39.72,283.39Z" style="fill:#fff"></path><path d="M100.06,287.81c-32.26.53-38.59,20-36.3,36,.79,3.34,5.36,6.41,15.12-9.58l-8-1.4,10.37-1.77,4.48-6.24-7.64-1.75,10.72-1.06A146,146,0,0,1,100.06,287.81Z" style="fill:#FF2000"></path><path d="M90.26,290.15c-19.07,6.94-24.63,20-24.61,35.33C67.93,312.65,70.13,299.64,90.26,290.15Z" style="fill:#fff"></path><path d="M100.06,287.81c-32.26.53-38.59,20-36.3,36,.79,3.34,5.36,6.41,15.12-9.58l-8-1.4,10.37-1.77,4.48-6.24-7.64-1.75,10.72-1.06A146,146,0,0,1,100.06,287.81Z" style="fill:#fff;opacity:0.2"></path></g><g id="freepik--Pictures--inject-34"><polygon points="404.73 126.85 434.02 143.76 433.96 166.15 404.67 149.24 404.73 126.85" style="fill:none"></polygon><polygon points="404.73 126.85 404.67 149.24 401.96 150.81 402.03 125.29 404.73 126.85" style="fill:#f0f0f0"></polygon><polygon points="433.96 166.15 433.95 169.28 401.96 150.81 404.67 149.24 433.96 166.15" style="fill:#f5f5f5"></polygon><path d="M398.67,152.69l38.55,22.25.09-33.05-38.55-22.26Zm3.29-1.88.07-25.52,2.7,1.56L434,143.76,434,166.15v3.13Z" style="fill:#e0e0e0"></path><polygon points="398.76 119.63 401.47 118.06 440.03 140.31 437.31 141.89 398.76 119.63" style="fill:#f5f5f5"></polygon><polygon points="440.03 140.31 439.93 173.37 437.22 174.94 437.31 141.89 440.03 140.31" style="fill:#f0f0f0"></polygon><g style="isolation:isolate"><polygon points="414.04 135.35 406.05 141.64 406.03 147.78 432.6 163.12 432.62 156.98 427.56 146.92 423.01 150.45 424.62 155.44 422.28 151.01 414.04 135.35" style="fill:#e0e0e0"></polygon><path d="M422.77,138.45c-1.25-.73-2.27-.15-2.28,1.29a5,5,0,0,0,2.26,3.91c1.25.72,2.27.14,2.27-1.3A4.94,4.94,0,0,0,422.77,138.45Z" style="fill:#e0e0e0"></path></g><polygon points="357.07 99.46 386.37 116.37 386.3 138.76 357.01 121.85 357.07 99.46" style="fill:none"></polygon><polygon points="357.07 99.46 357.01 121.85 354.3 123.43 354.37 97.9 357.07 99.46" style="fill:#f0f0f0"></polygon><polygon points="386.3 138.76 386.29 141.9 354.3 123.43 357.01 121.85 386.3 138.76" style="fill:#f5f5f5"></polygon><path d="M351,125.3l38.55,22.26.09-33.06L351.1,92.25Zm3.29-1.87.07-25.53,2.7,1.56,29.29,16.91-.06,22.39v3.14Z" style="fill:#e0e0e0"></path><polygon points="351.1 92.25 353.81 90.67 392.37 112.93 389.65 114.5 351.1 92.25" style="fill:#f5f5f5"></polygon><polygon points="392.37 112.93 392.27 145.98 389.56 147.56 389.65 114.5 392.37 112.93" style="fill:#f0f0f0"></polygon><g style="isolation:isolate"><polygon points="366.38 107.96 358.39 114.25 358.38 120.4 384.94 135.74 384.96 129.59 379.9 119.53 375.35 123.06 376.96 128.06 374.63 123.62 366.38 107.96" style="fill:#e0e0e0"></polygon><path d="M375.11,111.06c-1.25-.72-2.27-.14-2.27,1.29a5,5,0,0,0,2.25,3.91c1.25.72,2.27.15,2.27-1.29A5,5,0,0,0,375.11,111.06Z" style="fill:#e0e0e0"></path></g></g><g id="freepik--Clock--inject-34"><path d="M396,53.56h0l-.3-.23h0Z" style="fill:none"></path><path d="M397.72,55l-.06-.05.06.05Z" style="fill:none"></path><path d="M385.62,48.3l-.44-.08.42.07Z" style="fill:none"></path><path d="M386.6,48.54l-.39-.1.38.1Z" style="fill:none"></path><path d="M390.74,50.17l0,0,0,0Z" style="fill:none"></path><path d="M404.18,101.1c.27-.08.54-.18.8-.28C404.72,100.92,404.45,101,404.18,101.1Z" style="fill:none"></path><path d="M407.33,66.91h0l-.18-.3h0Z" style="fill:none"></path><path d="M406.27,65.18l-.21-.34h0Z" style="fill:none"></path><path d="M399.44,56.6c-.06-.06-.13-.11-.19-.18l.19.18Z" style="fill:none"></path><polygon points="400.59 57.79 400.58 57.78 400.59 57.79 400.59 57.79" style="fill:none"></polygon><path d="M403.45,61.16l0,0h0Z" style="fill:none"></path><path d="M401.88,101.53c.3,0,.6-.06.89-.11C402.48,101.47,402.18,101.5,401.88,101.53Z" style="fill:none"></path><path d="M385.42,93.76c.45.44.9.87,1.36,1.28C386.32,94.63,385.87,94.2,385.42,93.76Z" style="fill:none"></path><path d="M392,98.82c.43.24.85.47,1.27.68C392.82,99.29,392.4,99.06,392,98.82Z" style="fill:none"></path><path d="M390.4,97.83c.52.35,1,.68,1.57,1C391.44,98.51,390.92,98.18,390.4,97.83Z" style="fill:none"></path><path d="M398.42,101.32l.47.08Z" style="fill:none"></path><path d="M409.16,70.35l-.06-.12h0Z" style="fill:none"></path><path d="M380.44,48.09h0Z" style="fill:none"></path><path d="M383.47,48h0Z" style="fill:none"></path><path d="M381.63,48h0l-.25,0h0Z" style="fill:none"></path><path d="M384.62,48.11h0l-.46,0,.4,0Z" style="fill:none"></path><path d="M379.05,48.39h0l-.16,0,.09,0Z" style="fill:none"></path><path d="M378.05,48.75l-.15.06.13-.06Z" style="fill:none"></path><path d="M394.1,52.17l-.06-.05.06.05Z" style="fill:none"></path><path d="M413.35,92.43c0,.21-.06.42-.1.62C413.29,92.85,413.32,92.64,413.35,92.43Z" style="fill:none"></path><path d="M412.87,94.58c-.06.18-.1.37-.16.54C412.77,95,412.81,94.76,412.87,94.58Z" style="fill:none"></path><path d="M413.13,93.54c0,.19-.08.39-.13.57C413.05,93.93,413.09,93.73,413.13,93.54Z" style="fill:none"></path><path d="M412.18,96.51c-.06.16-.13.32-.2.47C412.05,96.83,412.12,96.67,412.18,96.51Z" style="fill:none"></path><path d="M412.55,95.57l-.18.51Z" style="fill:none"></path><path d="M411.77,97.39c-.07.15-.15.3-.23.45C411.62,97.69,411.7,97.54,411.77,97.39Z" style="fill:none"></path><polygon points="411.65 76.47 411.65 76.46 411.65 76.47 411.65 76.47" style="fill:none"></polygon><path d="M392.11,50.91q.45.26.9.54C392.71,51.27,392.41,51.08,392.11,50.91Z" style="fill:none"></path><path d="M413.64,90l-.06.82Z" style="fill:none"></path><path d="M413.53,91.22c0,.24-.06.49-.09.72C413.47,91.71,413.5,91.46,413.53,91.22Z" style="fill:none"></path><path d="M413.7,88.3q0,.65,0,1.26Q413.7,88.95,413.7,88.3Z" style="fill:none"></path><path d="M413.64,86.42V86.3s0,.08,0,.12Z" style="fill:none"></path><path d="M413.43,84.17l0-.24,0,.24Z" style="fill:none"></path><path d="M409.38,100.68c.11-.1.21-.21.31-.32C409.59,100.47,409.49,100.58,409.38,100.68Z" style="fill:none"></path><path d="M413,81.34l0-.14,0,.14Z" style="fill:none"></path><path d="M413.23,82.78h0c0-.2-.07-.39-.11-.59h0C413.16,82.39,413.19,82.58,413.23,82.78Z" style="fill:none"></path><path d="M411.32,98.22c-.09.13-.17.28-.25.41C411.15,98.5,411.23,98.35,411.32,98.22Z" style="fill:none"></path><path d="M408.41,101.5l-.35.26Z" style="fill:none"></path><path d="M410.27,99.7l-.29.36Z" style="fill:none"></path><path d="M410.82,99c-.09.13-.18.26-.28.38C410.64,99.25,410.73,99.12,410.82,99Z" style="fill:none"></path><path d="M409.07,101l-.33.29Z" style="fill:none"></path><path d="M377.54,51.57l-.32.21Z" style="fill:none"></path><path d="M374.53,77c-.21-.56-.41-1.11-.6-1.67.19.56.39,1.11.6,1.67Z" style="fill:none"></path><path d="M373.89,75.16h0c-.19-.57-.36-1.14-.53-1.72h0C373.53,74,373.7,74.59,373.89,75.16Z" style="fill:none"></path><path d="M408.08,98.34c-.29,0-.6.08-.9.1l-.2,0c-.38,0-.77,0-1.16,0l-.27,0a12.64,12.64,0,0,1-1.34-.13c-.29,0-.6-.1-.9-.17l-.29-.07-.63-.15c-.35-.1-.71-.21-1.08-.34l-.22-.08c-.29-.1-.59-.21-.88-.34l-.34-.14c-.32-.14-.63-.28-.95-.44l-.37-.17c-.42-.22-.84-.44-1.27-.69s-1-.64-1.58-1l-.26-.17c-.5-.34-1-.7-1.48-1.07l-.28-.22c-.49-.39-1-.79-1.46-1.21l-.13-.12c-.46-.41-.92-.84-1.36-1.27l-.23-.22q-.51-.51-1-1l-.05-.06c-.32-.34-.63-.68-.94-1l-.2-.24c-.51-.58-1-1.18-1.48-1.79l-.15-.2c-.38-.5-.75-1-1.11-1.51-.05-.08-.11-.15-.16-.22-.35-.5-.69-1-1-1.52l-.24-.37-.78-1.27c-.05-.09-.11-.18-.16-.28-.29-.49-.56-1-.83-1.49-.07-.12-.13-.24-.19-.37-.21-.39-.42-.8-.61-1.2-.07-.13-.14-.27-.2-.4-.24-.51-.48-1-.7-1.54a2.14,2.14,0,0,1-.1-.22c-.2-.47-.39-.93-.57-1.4l-.16-.42c-.21-.55-.41-1.11-.6-1.66,0,0,0-.1,0-.14-.19-.57-.36-1.15-.53-1.72l-.09-.34c-.19-.66-.35-1.33-.49-2,0-.14-.07-.29-.1-.44l-.15-.78-.09-.55c-.05-.26-.09-.53-.13-.8l-.06-.48c-.08-.58-.13-1.15-.17-1.72,0-.12,0-.24,0-.36q-.06-.89-.06-1.74c0-4.76,1.28-8.45,3.44-10.88,3.23-.69,7.14.07,11.36,2.51,11.06,6.38,20,21.87,20,34.59,0,4.74-1.28,8.43-3.43,10.85l-.29.07Z" style="fill:none"></path><path d="M378.83,85.56l-.78-1.28.78,1.28Z" style="fill:none"></path><path d="M383,91.17c-.5-.59-1-1.18-1.47-1.8.47.62,1,1.21,1.47,1.8Z" style="fill:none"></path><path d="M376.26,80.94c.2.41.4.81.61,1.21C376.66,81.75,376.46,81.35,376.26,80.94Z" style="fill:none"></path><path d="M377.89,84h0c-.28-.49-.56-1-.83-1.49h0C377.33,83,377.61,83.52,377.89,84Z" style="fill:none"></path><path d="M406,100.34l.06,0a8.86,8.86,0,0,1-.82.4h0C405.51,100.59,405.75,100.47,406,100.34Z" style="fill:none"></path><path d="M380.08,87.44c-.35-.5-.68-1-1-1.51.33.51.66,1,1,1.51Z" style="fill:none"></path><path d="M384.11,92.43l-.93-1h0Z" style="fill:none"></path><path d="M388.37,96.36c-.52-.41-1-.83-1.54-1.28l.08.07C387.39,95.57,387.88,96,388.37,96.36Z" style="fill:none"></path><path d="M390.13,97.65l.19.13c-.62-.42-1.24-.87-1.85-1.34l.19.14C389.14,97,389.63,97.31,390.13,97.65Z" style="fill:none"></path><path d="M406.16,100.26h0Z" style="fill:none"></path><path d="M385.2,93.55c-.35-.34-.69-.69-1-1C384.51,92.86,384.85,93.21,385.2,93.55Z" style="fill:none"></path><path d="M394.56,100.11h0l-1.17-.54.21.1C393.93,99.83,394.25,100,394.56,100.11Z" style="fill:none"></path><path d="M395.78,100.6l.22.08,1.07.33a20.9,20.9,0,0,1-2.18-.75h0Z" style="fill:none"></path><path d="M400.25,101.54l-.64-.05.63.05Z" style="fill:none"></path><path d="M401.65,101.54a9,9,0,0,1-1.16,0h0A8.64,8.64,0,0,0,401.65,101.54Z" style="fill:none"></path><path d="M404,101.15c-.33.09-.66.17-1,.23h0C403.38,101.31,403.71,101.24,404,101.15Z" style="fill:none"></path><path d="M398,101.23l-.35-.08.08,0Z" style="fill:none"></path><path d="M381.35,89.17h0c-.38-.49-.75-1-1.11-1.51h0C380.6,88.17,381,88.68,381.35,89.17Z" style="fill:none"></path><path d="M374.67,54.35c-.08.11-.16.21-.23.32C374.51,54.56,374.59,54.46,374.67,54.35Z" style="fill:none"></path><path d="M375.17,53.69l-.25.3Z" style="fill:none"></path><path d="M374.2,55.07a3.79,3.79,0,0,0-.2.34A3.79,3.79,0,0,1,374.2,55.07Z" style="fill:none"></path><path d="M376.29,52.52l-.29.26Z" style="fill:none"></path><path d="M376.9,52l-.31.23Z" style="fill:none"></path><path d="M375.71,53.08l-.27.28Z" style="fill:none"></path><path d="M374.69,77.39l.57,1.39Z" style="fill:none"></path><path d="M375.36,79c.22.51.46,1,.7,1.53C375.82,80,375.58,79.52,375.36,79Z" style="fill:none"></path><path d="M384.11,92.43l-.93-1h0c-.07-.08-.13-.16-.2-.23h0c-.5-.59-1-1.18-1.47-1.8l-.16-.2h0c-.38-.49-.75-1-1.11-1.51h0l-.16-.22h0c-.35-.5-.68-1-1-1.51l-.24-.37h0l-.78-1.28c-.05-.09-.1-.18-.16-.27h0c-.28-.49-.56-1-.83-1.49h0l-.19-.37c-.21-.4-.41-.8-.61-1.21l-.2-.4c-.24-.51-.48-1-.7-1.53a2.29,2.29,0,0,0-.1-.23l-.57-1.39c-.05-.14-.1-.28-.16-.42h0c-.21-.56-.41-1.11-.6-1.67a1,1,0,0,0,0-.14h0c-.19-.57-.36-1.14-.53-1.72h0l-.09-.33c-.18-.67-.35-1.34-.49-2h0l-.09-.44q-.09-.39-.15-.78a4.8,4.8,0,0,1-.09-.5v0q-.07-.41-.12-.81c0-.16-.05-.32-.07-.48-.07-.57-.13-1.15-.17-1.72,0-.12,0-.24,0-.36q-.06-.87-.06-1.74c0-.39,0-.78,0-1.16l0-.43c0-.23,0-.47.05-.7s0-.28.05-.43,0-.43.08-.64.05-.3.08-.45.06-.39.1-.58.07-.3.1-.45.08-.36.13-.53.08-.29.12-.44.09-.34.15-.5.1-.28.15-.42.1-.31.16-.46.12-.27.17-.4.13-.3.19-.44.13-.25.19-.37.14-.28.22-.42a3.79,3.79,0,0,1,.2-.34l.24-.4c.07-.11.15-.21.23-.32l.25-.36.25-.3.27-.33.27-.28c.1-.1.19-.21.29-.3l.29-.26.3-.27.31-.23c.11-.08.21-.17.32-.24l.32-.21a10,10,0,0,1,3.21-1.3c-2.16,2.43-3.43,6.12-3.44,10.88q0,.85.06,1.74c0,.12,0,.24,0,.36,0,.57.09,1.14.17,1.72l.06.48c0,.27.08.54.13.8l.09.55.15.78c0,.15.07.3.1.44.14.67.3,1.34.49,2l.09.34c.17.57.34,1.15.53,1.72,0,0,0,.09,0,.14.19.55.39,1.11.6,1.66l.16.42c.18.47.37.93.57,1.4a2.14,2.14,0,0,0,.1.22c.22.52.46,1,.7,1.54.06.13.13.27.2.4.19.4.4.81.61,1.2.06.13.12.25.19.37.27.51.54,1,.83,1.49.05.1.11.19.16.28l.78,1.27.24.37c.32.51.66,1,1,1.52.05.07.11.14.16.22.36.51.73,1,1.11,1.51l.15.2c.48.61,1,1.21,1.48,1.79l.2.24c.31.35.62.69.94,1l.05.06q.51.54,1,1l.23.22c.44.43.9.86,1.36,1.27l.13.12c.48.42,1,.82,1.46,1.21l.28.22c.49.37,1,.73,1.48,1.07l.26.17c.53.35,1.05.69,1.58,1s.85.47,1.27.69l.37.17c.32.16.63.3.95.44l.34.14c.29.13.59.24.88.34l.22.08c.37.13.73.24,1.08.34l.63.15.29.07c.3.07.61.12.9.17a12.64,12.64,0,0,0,1.34.13l.27,0c.39,0,.78,0,1.16,0l.2,0c.3,0,.61-.06.9-.1l.28,0,.29-.07a9.57,9.57,0,0,1-2.48,2h0l-.1,0-.06,0c-.25.13-.49.25-.74.36h0l-.26.11c-.26.1-.53.2-.8.28l-.15.05c-.32.09-.65.16-1,.23h0l-.26,0c-.29,0-.59.08-.89.11h-.23a8.64,8.64,0,0,1-1.14,0h-.27l-.63-.05q-.36,0-.72-.09l-.47-.08-.44-.09-.27-.06-.08,0-.56-.14-1.07-.33-.22-.08-.88-.34h0l-.32-.14h0c-.31-.13-.63-.28-.95-.43l-.21-.1-.16-.08c-.42-.21-.84-.44-1.27-.68s-1.05-.64-1.57-1l-.08,0-.19-.13c-.5-.34-1-.69-1.47-1.07l-.19-.14-.1-.08c-.49-.39-1-.79-1.46-1.21l-.08-.07-.05,0c-.46-.41-.91-.84-1.36-1.28l-.22-.21c-.35-.34-.69-.69-1-1Z" style="fill:#ebebeb"></path><polygon points="408.31 81.5 408.31 82.73 411.79 84.74 411.79 83.51 408.31 81.5" style="fill:#fff"></polygon><polygon points="380.18 55.51 379.65 56.26 382.66 60 383.19 59.24 380.18 55.51" style="fill:#fff"></polygon><path d="M414.73,85.82c0,12.72-9,17.84-20.1,11.46s-20-21.88-20-34.59,9-17.85,20.1-11.46S414.77,73.1,414.73,85.82ZM385.64,73.54a1.18,1.18,0,0,0,.49.65.69.69,0,0,0,.21.08l8.51.66a.28.28,0,0,0,.32-.12l5.57-9.44a1,1,0,0,0-.24-1,1.07,1.07,0,0,0-.23-.2c-.2-.11-.39-.09-.48.07l-5.48,9.29-8.39-.67c-.27,0-.39.27-.28.65M402,65.21l1.75-2.46-.92-1.15-1.75,2.46.92,1.15m.73,31,.93-.08-1.73-4.47-.93.08,1.73,4.47m-22.61-20,3-.26-.54-1.38-3,.26.53,1.38M409.21,93l.53-.76-3-3.74-.53.76,3,3.74m-29-37.5-.53.75,3,3.74.53-.76-3-3.73m26.6,18.42,3-.26-.53-1.37-3,.25.54,1.38M386.66,52.26l-.93.08,1.73,4.47.93-.08-1.73-4.47m-.1,34.64,1.75-2.46-.92-1.14-1.75,2.46.92,1.14M381.08,67V65.77l-3.48-2V65l3.49,2m30.71,16.5-3.48-2v1.23l3.48,2V83.51M394.11,93.59l1.06.62v-4l-1.06-.62v4m1.17-38.67-1.06-.62v4l1.06.62v-4" style="fill:#e0e0e0"></path><polygon points="394.22 54.3 394.2 58.3 395.27 58.92 395.28 54.92 394.22 54.3" style="fill:#fff"></polygon><polygon points="402.83 61.6 401.08 64.06 402 65.21 403.75 62.75 402.83 61.6" style="fill:#fff"></polygon><polygon points="409.26 72.3 406.25 72.55 406.77 73.92 409.8 73.67 409.26 72.3" style="fill:#fff"></polygon><polygon points="406.73 88.51 406.2 89.27 409.21 93.01 409.74 92.25 406.73 88.51" style="fill:#fff"></polygon><polygon points="401.93 91.69 401 91.77 402.73 96.24 403.66 96.16 401.93 91.69" style="fill:#fff"></polygon><polygon points="394.12 89.59 394.11 93.59 395.17 94.21 395.18 90.21 394.12 89.59" style="fill:#fff"></polygon><polygon points="387.39 83.3 385.64 85.76 386.56 86.9 388.31 84.44 387.39 83.3" style="fill:#fff"></polygon><polygon points="382.61 74.58 379.59 74.84 380.12 76.22 383.14 75.96 382.61 74.58" style="fill:#fff"></polygon><polygon points="377.6 63.77 377.59 65 381.07 67.01 381.08 65.78 377.6 63.77" style="fill:#fff"></polygon><polygon points="386.66 52.26 385.73 52.34 387.46 56.81 388.39 56.73 386.66 52.26" style="fill:#fff"></polygon><path d="M394.7,73.64a.47.47,0,0,0-.22-.07h-.17l-8.39-.67c-.27,0-.39.27-.28.65a1.18,1.18,0,0,0,.49.65.69.69,0,0,0,.21.08l8.51.66h0c.27,0,.4-.27.29-.65A1.23,1.23,0,0,0,394.7,73.64Z" style="fill:#fff"></path><path d="M400.27,64.2c-.2-.11-.39-.09-.48.07l-5.48,9.29h.17a.47.47,0,0,1,.22.07,1.23,1.23,0,0,1,.49.65c.11.38,0,.67-.29.65h0a.28.28,0,0,0,.32-.12l5.57-9.44a1,1,0,0,0-.24-1A1.07,1.07,0,0,0,400.27,64.2Z" style="fill:#f5f5f5"></path><path d="M408.41,101.5l.33-.25.33-.29.31-.28c.11-.1.21-.21.31-.32l.29-.3.29-.36c.09-.11.19-.21.27-.33s.19-.25.28-.38l.25-.36c.08-.13.16-.28.25-.41l.22-.38c.08-.15.16-.3.23-.45L412,97c.07-.15.14-.31.2-.47s.13-.28.19-.43l.18-.51.16-.45c.06-.17.1-.36.16-.54s.09-.31.13-.47.09-.38.13-.57l.12-.49c0-.2.07-.41.1-.62l.09-.49c0-.23.06-.48.09-.72s0-.29.05-.44l.06-.82,0-.4q0-.61,0-1.26c0-.62,0-1.25-.06-1.88h0s0-.08,0-.12c0-.7-.11-1.41-.2-2.13h0l0-.24c0-.38-.11-.77-.17-1.15h0c0-.2-.07-.39-.11-.59h0c-.05-.28-.1-.57-.16-.85h0l0-.14a43.84,43.84,0,0,0-1.28-4.74h0a49.88,49.88,0,0,0-2.49-6.11l-.06-.12h0c-.55-1.13-1.14-2.23-1.77-3.32h0l-.18-.3h0c-.28-.48-.58-1-.88-1.43l-.21-.34h0q-1.23-1.91-2.61-3.68l0,0h0c-.9-1.16-1.84-2.28-2.83-3.33h0c-.37-.4-.76-.79-1.14-1.18h0l-.19-.18c-.5-.49-1-1-1.53-1.43h0l-.06-.05c-.54-.48-1.1-.94-1.66-1.38h0l-.3-.23h0c-.53-.41-1.06-.79-1.6-1.16h0l-.06-.05-1-.67q-.45-.29-.9-.54c-.46-.27-.92-.51-1.37-.74h0l0,0a22.83,22.83,0,0,0-4.1-1.61h0l-.38-.1-.59-.14h0l-.42-.07-.54-.11h-.06l-.4,0-.71-.08h-.28a13.21,13.21,0,0,0-1.54,0h0l-.21,0h0c-.33,0-.65.06-1,.11h0a10,10,0,0,0-1.34.29h0l0,0-.09,0a9,9,0,0,0-.87.31h0l-.13.06a10.52,10.52,0,0,0-1.17.57l0,0,5.3-3.09.12-.06.14-.07c.26-.14.53-.27.8-.39l.15-.08.13,0c.32-.13.64-.25,1-.35h.05c.35-.1.72-.18,1.08-.25l.13,0,.17,0c.33,0,.65-.09,1-.11l.16,0h.06a10.41,10.41,0,0,1,1.25,0h.12l.41,0,.29,0c.29,0,.59.06.88.1h0l1,.18.31.07.61.15.07,0,1.16.36.24.09c.32.11.64.23,1,.37l.13,0,.23.11,1,.47.4.2c.45.22.91.47,1.37.73s1.14.7,1.7,1.07l.29.19c.54.37,1.07.76,1.6,1.16l.3.24c.53.42,1.06.85,1.58,1.31l.14.12c.5.44,1,.9,1.48,1.38,0,.05.1.09.14.14l.09.09c.38.37.75.75,1.11,1.13l0,.06c.35.37.69.75,1,1.13l.1.11.12.14c.54.63,1.08,1.28,1.59,1.94l0,.06.11.15c.41.54.81,1.08,1.21,1.64l.12.16a.56.56,0,0,0,0,.08c.38.54.74,1.08,1.1,1.64l.1.15.15.25c.29.45.57.91.84,1.37l.13.21.05.09c.31.53.61,1.07.89,1.61l.08.13.13.27c.23.43.45.86.66,1.3.05.09.1.18.14.27l.08.17c.26.55.52,1.1.76,1.66l0,.05c0,.06.05.12.07.17q.33.77.63,1.53a2.44,2.44,0,0,0,.1.24,1.72,1.72,0,0,0,.07.21c.23.6.45,1.2.65,1.81v0l0,.1c.21.63.4,1.25.57,1.87,0,.08.05.16.07.24s0,.08,0,.13c.19.72.37,1.44.53,2.16,0,.07,0,.13,0,.19l.06.29c.06.28.11.56.16.84s.07.4.1.59.1.59.14.88l.06.41a.45.45,0,0,0,0,.11q.12.93.18,1.86l0,.39c0,.63.06,1.26.06,1.88,0,6.83-2.43,11.63-6.32,13.89l-5.31,3.09.34-.22.34-.22Z" style="fill:#ebebeb"></path><path d="M370.38,63.29c0,13.74,9.63,30.49,21.59,37.4,6.2,3.57,11.79,3.8,15.75,1.29l.34-.22.35-.26.33-.25.33-.29.31-.28c.11-.1.21-.21.31-.32l.29-.3.29-.36c.09-.11.19-.21.27-.33s.19-.25.28-.38l.25-.36c.08-.13.16-.28.25-.41l.22-.38c.08-.15.16-.3.23-.45L412,97c.07-.15.14-.31.2-.47s.13-.28.19-.43l.18-.51.16-.45c.06-.17.1-.36.16-.54s.09-.31.13-.47.09-.38.13-.57l.12-.49c0-.2.07-.41.1-.62l.09-.49c0-.23.06-.48.09-.72s0-.29.05-.44l.06-.82,0-.4q0-.61,0-1.26c0-.62,0-1.25-.06-1.88V86.3c0-.7-.11-1.41-.2-2.13l0-.24c0-.38-.11-.77-.17-1.15,0-.2-.07-.39-.11-.59s-.1-.57-.16-.85l0-.14a43.84,43.84,0,0,0-1.28-4.74h0a49.88,49.88,0,0,0-2.49-6.11l-.06-.12c-.55-1.13-1.14-2.23-1.77-3.32l-.18-.3c-.28-.48-.58-1-.88-1.43l-.21-.34q-1.23-1.91-2.61-3.68l0,0c-.9-1.16-1.84-2.28-2.83-3.33h0c-.37-.4-.76-.79-1.14-1.18-.06-.06-.13-.11-.19-.18-.5-.49-1-1-1.53-1.43l-.06-.05c-.54-.48-1.1-.94-1.66-1.38l-.3-.23c-.53-.41-1.06-.79-1.6-1.16l-.06-.05-1-.67c-.3-.18-.6-.37-.9-.54-.46-.27-.92-.51-1.37-.74l0,0a22.83,22.83,0,0,0-4.1-1.61l-.39-.1-.59-.14-.44-.08-.54-.11-.46,0-.71-.08h-.28a13.21,13.21,0,0,0-1.54,0l-.25,0c-.33,0-.65.06-1,.11h0a10,10,0,0,0-1.34.29l-.16,0a9,9,0,0,0-.87.31l-.15.06a10.52,10.52,0,0,0-1.17.57C372.82,51.63,370.4,56.44,370.38,63.29ZM384.17,92.5l-.06-.07-.93-1c-.07-.08-.13-.16-.2-.23-.5-.59-1-1.18-1.47-1.8l-.16-.2c-.38-.49-.75-1-1.11-1.51l-.16-.22c-.35-.5-.68-1-1-1.51l-.24-.37-.78-1.28c-.05-.09-.1-.18-.16-.27-.28-.49-.56-1-.83-1.49l-.19-.37c-.21-.4-.41-.8-.61-1.21l-.2-.4c-.24-.51-.48-1-.7-1.53a2.29,2.29,0,0,0-.1-.23l-.57-1.39c-.05-.14-.1-.28-.16-.42-.21-.56-.41-1.11-.6-1.67a1,1,0,0,0,0-.14c-.19-.57-.36-1.14-.53-1.72l-.09-.33c-.18-.67-.35-1.34-.49-2l-.09-.44q-.09-.39-.15-.78a4.8,4.8,0,0,1-.09-.5c-.05-.29-.09-.57-.13-.86s-.05-.32-.07-.48c-.07-.57-.13-1.15-.17-1.72,0-.12,0-.24,0-.36q-.06-.87-.06-1.74c0-.39,0-.78,0-1.16l0-.43c0-.23,0-.47.05-.7s0-.28.05-.43,0-.43.08-.64.05-.3.08-.45.06-.39.1-.58.07-.3.1-.45.08-.36.13-.53.08-.29.12-.44.09-.34.15-.5.1-.28.15-.42.1-.31.16-.46.12-.27.17-.4.13-.3.19-.44.13-.25.19-.37.14-.28.22-.42a3.79,3.79,0,0,1,.2-.34l.24-.4c.07-.11.15-.21.23-.32l.25-.36.25-.3.27-.33.27-.28c.1-.1.19-.21.29-.3l.29-.26.3-.27.31-.23c.11-.08.21-.17.32-.24l.32-.21a10,10,0,0,1,3.21-1.3c3.23-.69,7.14.07,11.36,2.51,11.06,6.38,20,21.87,20,34.59,0,4.74-1.28,8.43-3.43,10.85a9.57,9.57,0,0,1-2.48,2h0l-.1,0a8.86,8.86,0,0,1-.82.4l-.26.11c-.26.1-.53.2-.8.28l-.15.05c-.33.09-.66.17-1,.23l-.26,0c-.29,0-.59.08-.89.11h-.23a9,9,0,0,1-1.16,0h-.24l-.64-.05q-.36,0-.72-.09l-.47-.08-.44-.09-.35-.08-.56-.14a20.9,20.9,0,0,1-2.18-.75l-.32-.14-1.17-.54-.16-.08c-.42-.21-.84-.44-1.27-.68s-1.05-.64-1.57-1l-.08,0c-.62-.42-1.24-.87-1.85-1.34l-.1-.08c-.52-.41-1-.83-1.54-1.28l-.05,0c-.46-.41-.91-.84-1.36-1.28l-.22-.21C384.85,93.21,384.51,92.86,384.17,92.5Z" style="fill:#fff"></path></g><g id="freepik--character-2--inject-34"><path d="M224.89,147.36l-4.1-3a8.23,8.23,0,0,1-2.79-3.74l-1-2.67a10,10,0,0,0-3.43-4.58,34.39,34.39,0,0,1-6.29-6h0a3.79,3.79,0,0,0-.26,4.78,26.06,26.06,0,0,0,2.5,2.87l-2.26.16a7.8,7.8,0,0,1-4.64-1.14l-5.73-3.51a1.09,1.09,0,0,0-1.66.92,24.7,24.7,0,0,0,1.65,8.29,9.39,9.39,0,0,0,5.47,5.53c3,1.17,6,2.18,7.69,2.74a9.32,9.32,0,0,1,2.69,1.4l6,4.48Z" style="fill:#ffa8a7"></path><path d="M220.43,143.41l5.18,3.33a10.12,10.12,0,0,1-6.67,8.64l-4.74-4.48S218.78,150.19,220.43,143.41Z" style="fill:#455a64"></path><path d="M220.43,143.41l5.18,3.33a10.12,10.12,0,0,1-6.67,8.64l-4.74-4.48S218.78,150.19,220.43,143.41Z" style="fill:#fff;opacity:0.6000000000000001"></path><path d="M223.68,151.85a10.25,10.25,0,0,0,1.93-5.11l16.18,10.44,9.54-26.72a10.06,10.06,0,0,1,8.2-6.6l4.67-.6-4.36,31.27-7.43,14.91a9.92,9.92,0,0,1-15.18,3.24l-18.29-17.3A10.22,10.22,0,0,0,223.68,151.85Z" style="fill:#455a64"></path><path d="M223.68,151.85a10.25,10.25,0,0,0,1.93-5.11l16.18,10.44,9.54-26.72a10.06,10.06,0,0,1,8.2-6.6l4.67-.6-4.36,31.27-7.43,14.91a9.92,9.92,0,0,1-15.18,3.24l-18.29-17.3A10.22,10.22,0,0,0,223.68,151.85Z" style="fill:#fff;opacity:0.4"></path><polygon points="241.78 157.18 247.92 161.78 243.49 152.41 241.78 157.18" style="opacity:0.2"></polygon><path d="M243.54,326.74a10.09,10.09,0,0,0,7.56,2.78,22.9,22.9,0,0,0,8-2c2.56-1.05,5.77-4,8.54-3.94a68.27,68.27,0,0,0,8.09-.55,42.08,42.08,0,0,0-1.15-11l-12.92-.34c-3.49,4.78-10.27,8.75-15.4,10.24a4.53,4.53,0,0,0-3.19,3.4.25.25,0,0,1,0,.08A5.31,5.31,0,0,0,243.54,326.74Z" style="fill:#37474f"></path><path d="M267.65,323.56c-2.77-.06-6,2.89-8.54,3.94a22.9,22.9,0,0,1-8,2,10.09,10.09,0,0,1-7.56-2.78,5.31,5.31,0,0,1-.45-1.32.25.25,0,0,0,0-.08,4.16,4.16,0,0,0,0,1.72,5.31,5.31,0,0,0,.45,1.32,10.09,10.09,0,0,0,7.56,2.78,22.9,22.9,0,0,0,8-2c2.56-1.05,5.77-4,8.54-3.94a59.2,59.2,0,0,0,8-.46c.06-.58.1-1.16.12-1.73A68.27,68.27,0,0,1,267.65,323.56Z" style="fill:#263238"></path><path d="M304.12,328a18.42,18.42,0,0,1-.39,3.92,9,9,0,0,1-3.58,5.71,11.42,11.42,0,0,1-5.69,1.52,12.69,12.69,0,0,1-5.21-.54,5.87,5.87,0,0,1-3.05-2.49.17.17,0,0,1,0,.07,5.49,5.49,0,0,0,3.51,3.65,12.71,12.71,0,0,0,5.21.54,11.42,11.42,0,0,0,5.69-1.52,9,9,0,0,0,3.58-5.71,18.42,18.42,0,0,0,.39-3.92,6.65,6.65,0,0,1,2.1-4.79,11.61,11.61,0,0,0,.92-.94,2.32,2.32,0,0,0,.56-1.71c0-.25-.05-.48-.08-.72-.47.56-1.59,1.88-1.87,2.14A6.61,6.61,0,0,0,304.12,328Z" style="fill:#263238"></path><path d="M294.24,314.3a14.26,14.26,0,0,1-1,7.94,30.25,30.25,0,0,1-4.2,6.92,19.85,19.85,0,0,0-2.2,3.21,5.77,5.77,0,0,0-.63,3.7,5.87,5.87,0,0,0,3.05,2.49,12.69,12.69,0,0,0,5.21.54,11.42,11.42,0,0,0,5.69-1.52,9,9,0,0,0,3.58-5.71,18.42,18.42,0,0,0,.39-3.92,6.61,6.61,0,0,1,2.1-4.79c.28-.26,1.4-1.58,1.87-2.14a14.45,14.45,0,0,0-1.93-5.54Z" style="fill:#37474f"></path><path d="M256.08,186.7l1.07,73.69L260.63,312c8.8,5.57,15.18,1,15.18,1,3.33-24.43,3.79-39.46,2-49.63l1.67-39.76,5,41.28,8.42,50.61c9,5.85,15.41,0,15.41,0,0-18.74,1.66-39.68-3.5-53.19a310.18,310.18,0,0,0-2.42-74.82Z" style="fill:#263238"></path><path d="M277.61,208.39l1.84,15.19-.78,18.62-3.4-30.61c-7.85-3.07-8.87-7.4-8.87-7.4A24.07,24.07,0,0,0,277.61,208.39Z" style="opacity:0.30000000000000004"></path><path d="M272.81,122.35l-8.61.91c-7.06,6.22-10.71,19.27-9.19,33.69a256.23,256.23,0,0,1,1.07,29.75c19.12,14,43.25,3.79,46.29.76L301,169.78a12.34,12.34,0,0,1,1-5.82c1.81-4.2,5-12.45,5.46-18.85a33.45,33.45,0,0,0-3.49-16.47l-12.52-5.46Z" style="fill:#455a64"></path><g style="opacity:0.5"><path d="M272.81,122.35l-8.61.91c-7.06,6.22-10.71,19.27-9.19,33.69a256.23,256.23,0,0,1,1.07,29.75c19.12,14,43.25,3.79,46.29.76L301,169.78a12.34,12.34,0,0,1,1-5.82c1.81-4.2,5-12.45,5.46-18.85a33.45,33.45,0,0,0-3.49-16.47l-12.52-5.46Z" style="fill:#fff"></path></g><path d="M270.42,134.91a93.28,93.28,0,0,0-7.1,33.65l3.55,7.63,5.56-7.29a286.45,286.45,0,0,1,.67-33.5Z" style="fill:#fff"></path><path d="M270.11,128.64a26.17,26.17,0,0,0,.31,6.27,5,5,0,0,0,2.68.49,22,22,0,0,0,4.3-5.2l-4.3-1.56Z" style="fill:#fff"></path><path d="M273.1,128.64c3.71,1.37,7,8,7,8,9.74-8.27,11.26-13.43,11.26-13.43a19.22,19.22,0,0,0-4.72-5Z" style="fill:#455a64"></path><path d="M273.1,128.64c-2.83.08-5.34,4-5.34,4-.45-6.91,5.34-12.22,5.34-12.22Z" style="fill:#455a64"></path><g style="opacity:0.35000000000000003"><path d="M273.1,128.64c3.71,1.37,7,8,7,8,9.74-8.27,11.26-13.43,11.26-13.43a19.22,19.22,0,0,0-4.72-5Z" style="fill:#fff"></path><path d="M273.1,128.64c-2.83.08-5.34,4-5.34,4-.45-6.91,5.34-12.22,5.34-12.22Z" style="fill:#fff"></path></g><path d="M291.37,90.35a7.65,7.65,0,0,0-4.91-2.64l-25.64,2.41c-3,6.36-.59,10.56-.59,10.56-.4,9.7-.74,15.86,3.47,17.91a19.38,19.38,0,0,0,9.36,1.31,22.09,22.09,0,0,0,8.59-2.31l.13-.08a7.32,7.32,0,0,0,3.68-4.89,39.8,39.8,0,0,0,.88-5.74,22.25,22.25,0,0,1,.36-3.27,5.81,5.81,0,0,1,1.44-2.91,3.3,3.3,0,0,1,2.95-1,3.05,3.05,0,0,1,.53.2C292.35,95.6,292.56,91.86,291.37,90.35Z" style="fill:#37474f"></path><path d="M282,91.09a9.1,9.1,0,0,0,.34,5.45,39.5,39.5,0,0,1,1.62,5.3,8.68,8.68,0,0,1-.7,5.34,6.2,6.2,0,0,1-4.09,3.31c-2.75.59-5.44-1-8.2-1.58a11.33,11.33,0,0,0-7.72,1.38,1.33,1.33,0,0,1-2-1.08c-.32-5.58-.32-14.33.49-18.44Z" style="fill:#ffa8a7"></path><polygon points="284.59 116.03 284.59 116.02 284.58 116.03 284.59 116.03" style="fill:#ffa8a7"></polygon><path d="M286.83,109.67s-.05,2.27-.11,5a7.7,7.7,0,0,0,2.39-3.76A3.44,3.44,0,0,1,286.83,109.67Z" style="fill:#37474f"></path><path d="M262.14,86,259,83.79a7,7,0,0,0,1.22,6.37,10.05,10.05,0,0,0,5.62,3.35,20.87,20.87,0,0,0,6.6.31,48.32,48.32,0,0,0,9.54-1.77,7.57,7.57,0,0,0,3.75-2,5.07,5.07,0,0,0,.2-5.92,7.41,7.41,0,0,0-5.27-3.1,19.77,19.77,0,0,0-6.35.51,19.11,19.11,0,0,1-6.34.46,6.63,6.63,0,0,1-5.12-3.44C261,81.52,262.14,86,262.14,86Z" style="fill:#37474f"></path><polygon points="270.18 100.99 265.51 106.73 269.8 108.27 270.18 100.99" style="fill:#f28f8f"></polygon><path d="M273.72,111.13l-3.61,1.12a2.2,2.2,0,0,0,2.43,1.14A2,2,0,0,0,273.72,111.13Z" style="fill:#f28f8f"></path><path d="M273.72,111.13l-3.61,1.12a2.2,2.2,0,0,0,2.43,1.14A2,2,0,0,0,273.72,111.13Z" style="opacity:0.30000000000000004"></path><path d="M271.36,113.32a2.08,2.08,0,0,0,1.18.07,1.83,1.83,0,0,0,1.18-1.65,2.07,2.07,0,0,0-1.4.25A2.18,2.18,0,0,0,271.36,113.32Z" style="fill:#f28f8f"></path><path d="M276.54,102.25a1.28,1.28,0,1,1-1.21-1.37A1.29,1.29,0,0,1,276.54,102.25Z" style="fill:#263238"></path><path d="M265.8,101.24a1.29,1.29,0,1,1-1.22-1.37A1.29,1.29,0,0,1,265.8,101.24Z" style="fill:#263238"></path><path d="M264.82,96l-2.94,1.84a1.86,1.86,0,0,1,.66-2A2.13,2.13,0,0,1,264.82,96Z" style="fill:#263238"></path><path d="M275.81,96.43l2.74,2.15a1.87,1.87,0,0,0-.45-2.07A2.15,2.15,0,0,0,275.81,96.43Z" style="fill:#263238"></path><path d="M293.39,101.79a3.64,3.64,0,0,0-1.77-1.89,3.05,3.05,0,0,0-.53-.2,3.3,3.3,0,0,0-2.95,1,5.81,5.81,0,0,0-1.44,2.91,22.25,22.25,0,0,0-.36,3.27,41.78,41.78,0,0,1-.91,5.88,7.24,7.24,0,0,1-3.66,4.76l-.12.07a22.09,22.09,0,0,1-8.59,2.31v8.74l12.12-7.17a2.93,2.93,0,0,0,1.44-2.47c0-1.4.06-2.94.09-4.36.06-2.7.11-5,.11-5a3.44,3.44,0,0,0,2.28,1.21,3.2,3.2,0,0,0,1.2-.06,4.55,4.55,0,0,0,2.66-2.31,8.41,8.41,0,0,0,.85-3.53A7,7,0,0,0,293.39,101.79Z" style="fill:#ffa8a7"></path><path d="M283.38,117.41a8.32,8.32,0,0,0,1.49-3.15,7.24,7.24,0,0,1-3.1,3.26l-.12.07a22.09,22.09,0,0,1-8.59,2.31v2.23a21.5,21.5,0,0,0,5.08-1.08A11.44,11.44,0,0,0,283.38,117.41Z" style="fill:#f28f8f"></path><path d="M233.25,171.62c2.34-1,9.38,4.64,13.95,3.71l-4.58-2.24a2.94,2.94,0,0,1-1.62-3h0a.76.76,0,0,1,.85-.65c6.8,1.05,12,5.45,14.42,5.78A23.28,23.28,0,0,0,261,175a21.92,21.92,0,0,0,0,11c-2.5.05-4.32.08-5,.08-3.24,0-7,1.38-10.54.67-6.66-1.57-9.29-4-9.32-6.89,0,0-2.74-1.86-1.89-4.84C234.21,175,230.91,172.65,233.25,171.62Z" style="fill:#ffa8a7"></path><path d="M265.54,173.6c6.29-1.1,9-2.18,16.69-2.57l5.31-14.88h0c2.4-7.47,8.1-24,13-29,14.21,3,15.27,9.52,2.5,40-.93,2.26-4.51,9.44-7,14.42a9.15,9.15,0,0,1-8.19,5H266.09A27.51,27.51,0,0,1,265.54,173.6Z" style="fill:#455a64"></path><path d="M258.13,174.65c3-.33,5.4-.69,7.41-1.05a27.51,27.51,0,0,0,.55,13.1h-7.16S255.46,179.92,258.13,174.65Z" style="fill:#455a64"></path><path d="M265.54,173.6c6.29-1.1,9-2.18,16.69-2.57l5.31-14.88h0c2.4-7.47,8.1-24,13-29,14.21,3,15.27,9.52,2.5,40-.93,2.26-4.51,9.44-7,14.42a9.15,9.15,0,0,1-8.19,5H266.09A27.51,27.51,0,0,1,265.54,173.6Z" style="fill:#fff;opacity:0.4"></path><path d="M258.13,174.65c3-.33,5.4-.69,7.41-1.05a27.51,27.51,0,0,0,.55,13.1h-7.16S255.46,179.92,258.13,174.65Z" style="fill:#fff;opacity:0.6000000000000001"></path><path d="M282.23,171a38.18,38.18,0,0,1,9.13,1.07,20.44,20.44,0,0,0-7.56-5.47Z" style="opacity:0.2"></path></g><g id="freepik--character-3--inject-34"><path d="M352.53,237c11.59,1.35,13.82,7.2,17.87,18.35,2.45,6.78,5,13.39,6.57,17.54a8.43,8.43,0,0,1-1.14,8.09l-11.9,15.82-5.31-11.48,6.59-10-6.7-12.26Z" style="fill:#ffcdcc"></path><path d="M352.53,237c15.19,1.43,14.8,8.41,18.93,17.84-3.75,7.67-14.25,8.05-14.25,8.05C351.58,244.92,352.53,237,352.53,237Z" style="fill:#f5f5f5"></path><path d="M324.26,213.52l-3.2,6,2.85,1.93C324.07,218.87,324.09,216.07,324.26,213.52Z" style="fill:#ffa8a7"></path><path d="M281.59,293.92a34.55,34.55,0,0,1-11.39,3.32c-4,.37-5.2.35-8.74-1.46a15.65,15.65,0,0,1-7.69-8.88l0,0a3.64,3.64,0,0,1,4.54-.68c3.37,1.94,4.86,1.89,8.56.82a25.53,25.53,0,0,1-3.22-4c-.46-.71-.89-1.65-.42-2.36a1.59,1.59,0,0,1,1.82-.49,5.42,5.42,0,0,1,1.7,1.09,23,23,0,0,0,10,4.67C278.23,288.42,280.1,291.39,281.59,293.92Z" style="fill:#ffcdcc"></path><path d="M307.71,444.7a4.83,4.83,0,0,0,3.48,1,40.28,40.28,0,0,0,11-1.54,22.77,22.77,0,0,0,5.8-2.43,15.71,15.71,0,0,0,5.11-5.21,41.76,41.76,0,0,1-.84-7.05c-3,0-6.2,0-9.25,0v5a47.21,47.21,0,0,1-15.26,6.71,2.47,2.47,0,0,0-.06,3.62Z" style="fill:#ffcdcc"></path><path d="M333.84,439.51c-.28-1-.52-2-.72-3A15.71,15.71,0,0,1,328,441.7a22.77,22.77,0,0,1-5.8,2.43,40.28,40.28,0,0,1-11,1.54,4.83,4.83,0,0,1-3.48-1,2.47,2.47,0,0,1,.06-3.62l-1.24.3a12.34,12.34,0,0,0-4.2,1.36,3.61,3.61,0,0,0-1.79,3.75c.36,1.29,1.65,2.09,2.88,2.64a21.23,21.23,0,0,0,15.05.79c3-1,6-2.7,9.18-2.61,1.83.05,3.83.66,5.37-.34a4.1,4.1,0,0,0,1.62-3.51A15,15,0,0,0,333.84,439.51Z" style="fill:#FF2000"></path><path d="M345.34,409.69a3.49,3.49,0,0,0-3.07,2.9c-.1,1.45,1,2.67,2.08,3.69l4,3.9a9.29,9.29,0,0,0,3.81,2.63,5.29,5.29,0,0,0,4.49-1,6.55,6.55,0,0,0,1.78-2.16c-.13-.91-.25-1.82-.42-2.72a7.09,7.09,0,0,0-1.21-3.23c-1.27-1.58-3.33-1.8-5.21-2-1.53-.15-2.43-1-3.57-1.91A7.36,7.36,0,0,0,345.34,409.69Z" style="fill:#ffcdcc"></path><path d="M358.43,419.69a6.55,6.55,0,0,1-1.78,2.16,5.29,5.29,0,0,1-4.49,1,9.29,9.29,0,0,1-3.81-2.63l-4-3.9c-1.05-1-2.18-2.24-2.08-3.69a3.49,3.49,0,0,1,3.07-2.9,7.36,7.36,0,0,1,2.68.16l-.4-.29a17.85,17.85,0,0,0-3.28-1.83,5.79,5.79,0,0,0-4-.53,4.28,4.28,0,0,0-2.72,3.94,7.43,7.43,0,0,0,1.72,4.69,33.14,33.14,0,0,0,3.55,3.66,43.93,43.93,0,0,1,4.56,5.16,27.2,27.2,0,0,0,3.23,3.94,6.55,6.55,0,0,0,4.58,1.94,3.88,3.88,0,0,0,3.41-2.17,6.14,6.14,0,0,0,.3-2.67C358.93,423.68,358.71,421.68,358.43,419.69Z" style="fill:#FF2000"></path><path d="M317,301.92c-2.81,35.5-.71,72.48-.71,72.48s4.91,39.66,5.63,56.33c4,3.95,11.68,0,11.68,0,2.2-29,8-40.16,1.67-58.22l4.53-41.59,1.8,33.38,6.85,52c4.16,3,9.55,0,9.55,0,2.23-25.5,7.44-37.1,0-57.84,8.9-41.29,5.95-57,4.78-61.15Z" style="fill:#FF2000"></path><path d="M317,301.92c-2.81,35.5-.71,72.48-.71,72.48s4.91,39.66,5.63,56.33c4,3.95,11.68,0,11.68,0,2.2-29,8-40.16,1.67-58.22l4.53-41.59,1.8,33.38,6.85,52c4.16,3,9.55,0,9.55,0,2.23-25.5,7.44-37.1,0-57.84,8.9-41.29,5.95-57,4.78-61.15Z" style="opacity:0.30000000000000004"></path><path d="M328.92,240.24c6-1.84,23.36-5.64,27.76-1.67,3.85,3.47,6.35,15.44,1.16,30.8a18.28,18.28,0,0,0,.61,13.41,80,80,0,0,1,5.26,15.1c-14,14.23-38.57,12-47.88,6a227,227,0,0,1,2.93-34Z" style="fill:#fff"></path><path d="M324.74,208.79a10,10,0,0,1-4.9-9.39,12.08,12.08,0,0,1,6.11-9.18,14.21,14.21,0,0,1,11.1-1c3.22,1,6.08,3.06,9.39,3.73,2.87.58,6,.08,8.67,1.2,3.4,1.39,5.38,5,6.25,8.58a24.16,24.16,0,0,1-1.27,15.15c-2,4.74-7.36,10.4-11.84,13-4.57,5.46-12.71,1.89-16.17-2.74S324.74,208.79,324.74,208.79Z" style="fill:#FF2000"></path><path d="M324.74,208.79a10,10,0,0,1-4.9-9.39,12.08,12.08,0,0,1,6.11-9.18,14.21,14.21,0,0,1,11.1-1c3.22,1,6.08,3.06,9.39,3.73,2.87.58,6,.08,8.67,1.2,3.4,1.39,5.38,5,6.25,8.58a24.16,24.16,0,0,1-1.27,15.15c-2,4.74-7.36,10.4-11.84,13-4.57,5.46-12.71,1.89-16.17-2.74S324.74,208.79,324.74,208.79Z" style="opacity:0.4"></path><path d="M326.82,204.81a22.86,22.86,0,0,0-3.61,10.34,67.81,67.81,0,0,0-.16,11,7.15,7.15,0,0,0,1,4.09,5.62,5.62,0,0,0,4.54,1.78c1.69,0,3.22,0,5-.06l.36,7.63c6,3.34,12.79,1,14.54-1.37l-.3-7.46c-9.36,1.75-14.41-1.45-15.29-7.25a6.54,6.54,0,0,0,5.4-1.41,6.17,6.17,0,0,0,1.78-5.12,4.08,4.08,0,0,0-1-2.27,3.7,3.7,0,0,0-3.83-.81,5.87,5.87,0,0,0-3,2.69,14.76,14.76,0,0,0-1.4,3.88,3.52,3.52,0,0,1-1.13-3.8c.25-.69.75-1.34.65-2.07s-1-1.33-1.35-2.06a2.77,2.77,0,0,1-.14-2.06,8.55,8.55,0,0,1,.9-1.91A19.1,19.1,0,0,0,326.82,204.81Z" style="fill:#ffcdcc"></path><path d="M362.86,226.62a33.82,33.82,0,0,1-7.48-12.12,22.14,22.14,0,0,1-.16-14.09,14.13,14.13,0,0,1,4.49-6.6,9.67,9.67,0,0,1,7.58-2.06c4.22.78,7.24,4.84,8,9.06s-.31,8.54-1.68,12.6c-1.71,5.07-5.62,11.31-4.95,18.47A36.62,36.62,0,0,1,362.86,226.62Z" style="fill:#FF2000"></path><path d="M362.86,226.62a33.82,33.82,0,0,1-7.48-12.12,22.14,22.14,0,0,1-.16-14.09,14.13,14.13,0,0,1,4.49-6.6,9.67,9.67,0,0,1,7.58-2.06c4.22.78,7.24,4.84,8,9.06s-.31,8.54-1.68,12.6c-1.71,5.07-5.62,11.31-4.95,18.47A36.62,36.62,0,0,1,362.86,226.62Z" style="opacity:0.3"></path><path d="M328.92,240.24c-12.13,2.46-11.29,8.52-17.34,19.68-3.7,7.17-7.91,17.38-7.91,17.38-10,2.38-20.29,6.42-26.93,8.59-2.41,6.33,4.85,8,4.85,8l25.09-4a13,13,0,0,0,9.11-6.18C324.74,268.67,333.23,251,328.92,240.24Z" style="fill:#ffcdcc"></path><path d="M355.05,313.57a21.33,21.33,0,0,1-14,5.21l-1.32,12.14,1.2,22.29L343.41,321A16.54,16.54,0,0,0,355.05,313.57Z" style="opacity:0.30000000000000004"></path><path d="M328.92,240.24c-11.59,1.55-12.34,6.59-17.46,17.14,6.25,8.79,16.12,6.16,16.12,6.16C334.58,245,328.92,240.24,328.92,240.24Z" style="fill:#f5f5f5"></path></g><g id="freepik--character-1--inject-34"><path d="M166.74,192.14l4.23,4.1c4.35-5.55,10.18-9.3,15.28-17.07,1.47-1.87,1.31-5.58,2.31-7.47.78-1.48,2.15-3.71,2.73-5a.82.82,0,0,1,1.21-.36c1.45,1.05.69,3.57-.08,6.22-.89,3.1,3.79-1.11,4.42-1.82,3-2.76,5.52-9.53,7.54-8.85s.42,4,.42,4c1.86.4,1.16,3.37,1.16,3.37,1.1,1.94.78,4.94-1.48,7.72-1.64,2-6.08,4.8-8.39,6.16a7.47,7.47,0,0,0-2.4,2.28l-14.52,21.57a8.8,8.8,0,0,1-12.58,2.13l-7.88-5.89Z" style="fill:#824645"></path><path d="M142.17,173.09c8.05-.35,19,12.7,25.11,18.85-.48,7.51-8.57,12.45-8.57,12.45a174.48,174.48,0,0,1-16.54-12.93Z" style="fill:#FF2000"></path><path d="M142.17,173.09c8.05-.35,19,12.7,25.11,18.85-.48,7.51-8.57,12.45-8.57,12.45a174.48,174.48,0,0,1-16.54-12.93Z" style="fill:#fff;opacity:0.30000000000000004"></path><path d="M149.68,197.72c2.59,2.05,5.69,4.39,9,6.67h0a42.86,42.86,0,0,0-5.32-21C152.15,188.17,150.92,193,149.68,197.72Z" style="opacity:0.2"></path><path d="M146.36,344.25c-.15,3.42,0,7.44,0,7.44l-2,.11a4.81,4.81,0,0,0-4.26,3.16l0,.13a1.88,1.88,0,0,1-2.32,1.15h0a1.91,1.91,0,0,1-1.14-1l-1-8.58Z" style="fill:#824645"></path><path d="M149.27,374c5.21,2.22,13.18,2.66,16.48-2.66v1.44c-3.3,5.31-11.27,4.88-16.48,2.66s-4.06-5.86-8.73-7.81a12.66,12.66,0,0,1-4.55-2.87c0-.43-.09-1-.16-1.57a15.87,15.87,0,0,0,4.71,3C145.21,368.16,144.07,371.8,149.27,374Z" style="fill:#37474f"></path><path d="M135.83,358.49a7.46,7.46,0,0,0,0-3.07,1.64,1.64,0,0,1,.24-1.36l.39-.38.18,1.58a1.91,1.91,0,0,0,1.14,1,1.88,1.88,0,0,0,2.32-1.15l0-.13a4.81,4.81,0,0,1,4.26-3.16l2-.12a1.45,1.45,0,0,1,1.42.9c2.08,5,7.3,10.57,11.33,13.12,3-.07,6.61,2.38,6.61,5.37v.29c-3.3,5.32-11.27,4.88-16.48,2.66s-4.06-5.86-8.73-7.81a15.87,15.87,0,0,1-4.71-3A16.77,16.77,0,0,1,135.83,358.49Z" style="fill:#FF2000"></path><path d="M145.9,362.6a.65.65,0,0,1-.92.08.66.66,0,0,1-.11-.91,7.53,7.53,0,0,1,6.8-3c.28.34.56.68.85,1A7.3,7.3,0,0,0,145.9,362.6Z" style="fill:#fff"></path><path d="M143.85,360.3a.66.66,0,0,1-1-.83,7.93,7.93,0,0,1,7.09-3.06c.25.37.52.74.78,1.11A7.32,7.32,0,0,0,143.85,360.3Z" style="fill:#fff"></path><path d="M148,364.84a.66.66,0,0,1-.93.09.65.65,0,0,1-.1-.91,7.5,7.5,0,0,1,6.61-3l1,1A7.28,7.28,0,0,0,148,364.84Z" style="fill:#fff"></path><path d="M159.14,365.7c3-.07,6.61,2.38,6.61,5.37v.29c-3.26,5.24-11,4.89-16.24,2.75C149.91,367,156.78,365.67,159.14,365.7Z" style="fill:#fff"></path><path d="M150.23,367a.65.65,0,0,1-.92.08.66.66,0,0,1-.11-.91,7.54,7.54,0,0,1,6.64-3c.41.37.83.72,1.24,1A7.33,7.33,0,0,0,150.23,367Z" style="fill:#fff"></path><path d="M118.69,350.57c-.14,3.43,0,7.45,0,7.45l-2,.1a4.82,4.82,0,0,0-4.26,3.17l0,.13a1.87,1.87,0,0,1-2.32,1.15h0a1.86,1.86,0,0,1-1.13-1l-1-8.58Z" style="fill:#824645"></path><path d="M121.61,380.35c5.2,2.22,13.17,2.65,16.48-2.66v1.44c-3.31,5.31-11.28,4.88-16.48,2.66s-4.07-5.86-8.73-7.81a12.66,12.66,0,0,1-4.55-2.87c0-.43-.09-1-.17-1.57a15.81,15.81,0,0,0,4.72,3C117.54,374.49,116.4,378.13,121.61,380.35Z" style="fill:#37474f"></path><path d="M108.16,364.82a7.51,7.51,0,0,0,0-3.07,1.64,1.64,0,0,1,.23-1.36l.39-.38.19,1.58a1.87,1.87,0,0,0,3.45-.17l0-.13a4.82,4.82,0,0,1,4.26-3.17l2-.11a1.47,1.47,0,0,1,1.42.9c2.08,5,7.3,10.57,11.32,13.12,3-.07,6.62,2.38,6.62,5.36v.3c-3.31,5.31-11.28,4.88-16.48,2.66s-4.07-5.86-8.73-7.81a15.81,15.81,0,0,1-4.72-3A17.16,17.16,0,0,1,108.16,364.82Z" style="fill:#FF2000"></path><path d="M118.24,368.93a.66.66,0,0,1-.92.08.65.65,0,0,1-.11-.91,7.55,7.55,0,0,1,6.8-3c.27.35.56.69.85,1A7.27,7.27,0,0,0,118.24,368.93Z" style="fill:#fff"></path><path d="M116.19,366.63a.66.66,0,0,1-.93.08.65.65,0,0,1-.1-.91,7.91,7.91,0,0,1,7.09-3.06q.38.56.78,1.11A7.32,7.32,0,0,0,116.19,366.63Z" style="fill:#fff"></path><path d="M120.37,371.17a.66.66,0,0,1-1-.82,7.51,7.51,0,0,1,6.62-3l1,1A7.27,7.27,0,0,0,120.37,371.17Z" style="fill:#fff"></path><path d="M131.47,372c3-.07,6.62,2.38,6.62,5.36v.3c-3.26,5.24-11,4.89-16.24,2.75C122.25,373.29,129.11,372,131.47,372Z" style="fill:#fff"></path><path d="M122.57,373.32a.66.66,0,0,1-1-.83,7.54,7.54,0,0,1,6.63-3c.42.37.83.72,1.24,1.05A7.32,7.32,0,0,0,122.57,373.32Z" style="fill:#fff"></path><path d="M153.09,236.27l-1,66.42L149,349.17c-7.93,5-16.13.26-16.13.26-3-22-3.13-35.63-1.49-44.8l-1-35.46-1.57,36.67-7.46,47c-8.14,5.27-17-.17-17-.17,0-16.88-1.74-36.94,2.92-49.12C104,265.9,109.54,237,109.54,237Z" style="fill:#37474f"></path><path d="M133.68,255.83l-3.28,13.34.46,17.13,4.92-27.59c7.08-2.77,8-6.67,8-6.67A21.82,21.82,0,0,1,133.68,255.83Z" style="opacity:0.30000000000000004"></path><polygon points="126.05 172.41 127.1 171.77 127.39 176.8 126.05 172.41" style="fill:#FF2000"></polygon><path d="M106.23,244.5c5.61,5.74,32.55,6.8,46.3-7.16-1.32-9.85-.88-20.41,0-30.85s6.6-28.69-4.33-30.81c-14.59-3-22-.25-33.87,3.06C103.92,197.23,105.35,224.91,106.23,244.5Z" style="fill:#fff"></path><path d="M133.76,180.49a25.26,25.26,0,0,0-2.28,7.91l1.11,3.3c-4,5.56-5.47,13.25-5.87,20.26s.38,14,.78,21,.4,14.17-1.5,20.89c-7.86,2.9-19.34,1.77-22.51-1.08-.45-32.94-1.94-66.84,10.84-74.07,4-1.37,8.6-2.42,8.6-2.42l6.25,4.7Z" style="fill:#FF2000"></path><path d="M133.76,180.49a25.26,25.26,0,0,0-2.28,7.91l1.11,3.3c-4,5.56-5.47,13.25-5.87,20.26s.38,14,.78,21,.4,14.17-1.5,20.89c-7.86,2.9-19.34,1.77-22.51-1.08-.45-32.94-1.94-66.84,10.84-74.07,4-1.37,8.6-2.42,8.6-2.42l6.25,4.7Z" style="fill:#fff;opacity:0.30000000000000004"></path><path d="M104.19,203.62c-.59,5.59-.86,11.82-1,18.4,3.43-5.45,9.14-16.15,10-28.19Z" style="opacity:0.2"></path><path d="M132,183.37a23.92,23.92,0,0,0-2.7,5.71,30.73,30.73,0,0,1-6.32-12.76l6.25,4.7,4.58-.53a28.29,28.29,0,0,0-2,6.11A13.45,13.45,0,0,1,132,183.37Z" style="fill:#FF2000"></path><path d="M141.27,177.1c1.9,2.49,2.18,4.39,2.18,7.48l-.9,2.54c4,13.74,2.48,44.11,8.07,55.73l4.19-5c-4.4-19.19,1.64-39,.75-51.74-.75-10.74-8.07-11-11.29-11.4l-2.77-.3Z" style="fill:#FF2000"></path><path d="M141.27,177.1c1.9,2.49,2.18,4.39,2.18,7.48l-.9,2.54c4,13.74,2.48,44.11,8.07,55.73l4.19-5c-4.4-19.19,1.64-39,.75-51.74-.75-10.74-8.07-11-11.29-11.4l-2.77-.3Z" style="fill:#fff;opacity:0.30000000000000004"></path><polygon points="148.2 181.31 146.87 186.12 144.53 182.28 148.2 181.31" style="fill:#FF2000"></polygon><path d="M148.2,181.31a15.85,15.85,0,0,0-6.57-8.5l-.36,4.29c1.68,2,1.9,3.94,2.18,7.48C144.74,183,148.2,181.31,148.2,181.31Z" style="fill:#FF2000"></path><path d="M148.2,181.31a15.85,15.85,0,0,0-6.57-8.5l-.36,4.29c1.68,2,1.9,3.94,2.18,7.48C144.74,183,148.2,181.31,148.2,181.31Z" style="fill:#fff;opacity:0.4"></path><path d="M141.84,170.35l-.57,6.75a2.79,2.79,0,0,0,.36,1.49,4,4,0,0,1-.56,4.41,4.55,4.55,0,0,1-2.82,1,13.26,13.26,0,0,1-10.46-4.3,3.34,3.34,0,0,1-.83-2.31l.42-17.12Z" style="fill:#824645"></path><path d="M127.38,160.29l14.46,10.06-.5,6c-3.07-.77-6.15-1.72-8.58-3.82C129.68,169.84,127,167.19,127.38,160.29Z" style="fill:#612d2b"></path><path d="M150.43,142.84c-1-8.94-11.16-12.36-17.69-11.57s-12.52,5.75-13.93,12.18,1.53,12.85,4.85,18.46l8.43-1.64L134.44,147l10.33.83,4.44-2.26,1.22-2.76" style="fill:#263238"></path><path d="M150.09,141c-2,2-13.31,2.58-16.05,1.82-.23,1.32-2.7,6-5.75,7.64a25,25,0,0,1,0,7.73,1.46,1.46,0,0,1-1,1.19c-.92.27-1.53-.68-2-1.44a6.23,6.23,0,0,0-2-2.23,3.14,3.14,0,0,0-2.89-.3,3,3,0,0,0-1.52,1.86,5.48,5.48,0,0,0-.12,2.45,7.38,7.38,0,0,0,1.59,3.74,5.07,5.07,0,0,0,3.56,1.84,3.69,3.69,0,0,0,3.42-1.69l.06.25a9.17,9.17,0,0,0,.38,1.19,10.2,10.2,0,0,0,7.47,6.4c1.73.36,3.66.71,5.62,1,1,.15,1.94.28,2.91.4a7,7,0,0,0,7.73-5.72C152.83,159.69,152.93,148.42,150.09,141Z" style="fill:#824645"></path><polygon points="143.92 154.71 148.7 160.5 144.32 162.05 143.92 154.71" style="fill:#f28f8f"></polygon><polygon points="143.92 154.71 148.7 160.5 144.32 162.05 143.92 154.71" style="fill:#612d2b"></polygon><path d="M137.17,155.43a1.32,1.32,0,1,0,1.32-1.3A1.33,1.33,0,0,0,137.17,155.43Z" style="fill:#263238"></path><path d="M148.19,155.08a1.32,1.32,0,1,0,1.32-1.3A1.32,1.32,0,0,0,148.19,155.08Z" style="fill:#263238"></path><path d="M147.5,149.25l3.51.4a1.86,1.86,0,0,0-1.47-1.54A2.21,2.21,0,0,0,147.5,149.25Z" style="fill:#263238"></path><path d="M139.66,149.25l-3.39,1a1.88,1.88,0,0,1,1.17-1.78A2.23,2.23,0,0,1,139.66,149.25Z" style="fill:#263238"></path><path d="M138.89,164l3.66,1.78a2.39,2.39,0,0,1-2.78.79A2.15,2.15,0,0,1,138.89,164Z" style="fill:#f28f8f"></path><path d="M138.89,164l3.66,1.78a2.39,2.39,0,0,1-2.78.79A2.15,2.15,0,0,1,138.89,164Z" style="fill:#612d2b"></path><path d="M141,166.64a2.18,2.18,0,0,1-1.27-.12,1.94,1.94,0,0,1-1-1.93,2.2,2.2,0,0,1,2.25,2Z" style="fill:#f28f8f"></path><path d="M126.05,172.41c1.31,3.48,4.34,7,7.71,8.08a21.89,21.89,0,0,0-5.19,6.63,40.13,40.13,0,0,1-5.64-10.8Z" style="fill:#FF2000"></path><path d="M126.05,172.41c1.31,3.48,4.34,7,7.71,8.08a21.89,21.89,0,0,0-5.19,6.63,40.13,40.13,0,0,1-5.64-10.8Z" style="fill:#fff;opacity:0.4"></path><path d="M102.63,254.6,86.38,226.08a11.44,11.44,0,0,1-.28-9.59l9-21.25a27.7,27.7,0,0,1,15.75-15.08l3.45-1.42c1.3,12.74-3.73,19.46-15.4,41.6,0,0,6.15,20.65,11,29.83a34.88,34.88,0,0,1,10.27,7.46,1.87,1.87,0,0,1,.11,2.45l0,0a1.74,1.74,0,0,1-2.15.46c-1.57-.81-3.12-1.64-4.7-2.43a50.87,50.87,0,0,0,6.1,10.09,1.91,1.91,0,0,1-.12,2.48l0,0a1.93,1.93,0,0,1-1.67.58l-5.09-.75a9.22,9.22,0,0,1-6.91-5.06A31.56,31.56,0,0,1,102.63,254.6Z" style="fill:#824645"></path><path d="M114.33,178.74c-9.89,3.39-16.66,6.21-24.51,27.51,3.93,6.07,14.74,5.25,14.74,5.25C118.62,190.28,114.33,178.74,114.33,178.74Z" style="fill:#FF2000"></path><path d="M114.33,178.74c-9.89,3.39-16.66,6.21-24.51,27.51,3.93,6.07,14.74,5.25,14.74,5.25C118.62,190.28,114.33,178.74,114.33,178.74Z" style="fill:#fff;opacity:0.30000000000000004"></path></g><g id="freepik--speech-bubbles--inject-34"><path d="M295.46,48.8h0Z" style="fill:none"></path><path d="M302.07,47.6a5.29,5.29,0,0,0-1.95-2l-26.8-15.37c-2.35-1.35-7.91.48-7.91,4.25V50a5.23,5.23,0,0,0,2.64,4.54l20.68,11.82h0l-3.57-2,1.71,4.86a.29.29,0,0,0,.36.18v0c.3-.16,1.65-.88,2.42-1.39h0l.05,0h0s.05,0,.07-.06l.42-.69,4.66,2.67a5.17,5.17,0,0,0,7.9-4.26V50.16A5.26,5.26,0,0,0,302.07,47.6Z" style="fill:#FF2000"></path><path d="M289.77,67.84s0,0-.07.06h0l-.05,0h0c-.77.51-2.12,1.23-2.42,1.39v0a.38.38,0,0,0,.17-.12l1.66-2.69-.33-.19h0l1.46.83Z" style="fill:#fff;opacity:0.2"></path><path d="M296.87,50.56a5.43,5.43,0,0,0-1.4-1.76h0a5.47,5.47,0,0,0-.63-.44L268,33a1.74,1.74,0,0,0-2.61,1.51c0-3.77,5.56-5.6,7.91-4.25l26.8,15.37a5.29,5.29,0,0,1,1.95,2Z" style="fill:#fff;opacity:0.4"></path><path d="M297.46,68.3V52.9a4.32,4.32,0,0,0,0-.62,5.47,5.47,0,0,0-.54-1.72l5.2-3a5.26,5.26,0,0,1,.68,2.56v15.4a5.17,5.17,0,0,1-7.9,4.26A1.75,1.75,0,0,0,297.46,68.3Z" style="fill:#fff;opacity:0.2"></path><path d="M274.68,46.46a4,4,0,0,1,1.94,3.32c0,1.3-.85,1.74-2,1.1a4.1,4.1,0,0,1-1.94-3.35C272.72,46.2,273.57,45.82,274.68,46.46Z" style="fill:#fff"></path><path d="M280.85,50.06a4.07,4.07,0,0,1,1.95,3.33c0,1.3-.86,1.74-2,1.1a4.13,4.13,0,0,1-1.95-3.35C278.89,49.81,279.74,49.43,280.85,50.06Z" style="fill:#fff"></path><path d="M287,53.67A4,4,0,0,1,289,57c0,1.3-.86,1.74-2,1.1a4.14,4.14,0,0,1-1.95-3.36C285.06,53.42,285.92,53,287,53.67Z" style="fill:#fff"></path><path d="M133.52,80.66,106.13,96.37a5.39,5.39,0,0,0-2.68,4.64v19.93a5.27,5.27,0,0,0,8.07,4.34l4.76-2.72.43.7s.05,0,.07.06h0l0,0h0c.78.52,2.16,1.25,2.47,1.41v0a.28.28,0,0,0,.36-.18l1.76-5h0l17.48-10A5.38,5.38,0,0,0,141.6,105V85C141.6,81.15,135.92,79.28,133.52,80.66Z" style="fill:#FF2000"></path><path d="M110.89,99.61h0Z" style="fill:none"></path><path d="M116.71,123.26s.05,0,.07.06h0l0,0h0c.78.52,2.16,1.25,2.47,1.41v0a.26.26,0,0,1-.17-.12l-1.7-2.75.34-.19h0l-1.5.85Z" style="fill:#fff;opacity:0.2"></path><path d="M109.46,101.41a5.53,5.53,0,0,1,1.43-1.79h0a5.7,5.7,0,0,1,.65-.44l27.39-15.71A1.78,1.78,0,0,1,141.6,85c0-3.85-5.68-5.72-8.08-4.34L106.13,96.37a5.36,5.36,0,0,0-2,2Z" style="fill:#fff;opacity:0.4"></path><path d="M108.86,123.74V103.81a4.26,4.26,0,0,1,0-.63,5.39,5.39,0,0,1,.56-1.77l-5.32-3a5.36,5.36,0,0,0-.69,2.62v19.93a5.27,5.27,0,0,0,8.07,4.34A1.77,1.77,0,0,1,108.86,123.74Z" style="fill:#fff;opacity:0.2"></path><path d="M122.92,103.83c.41-.24.75,0,.75.43v7.44a1.64,1.64,0,0,1-.75,1.3l-3.72,2.15c-.41.24-.75,0-.75-.43l0-7.45a1.67,1.67,0,0,1,.75-1.29Zm-1.4,9a1.74,1.74,0,0,0,.78-1.36c0-.5-.35-.7-.78-.45a1.72,1.72,0,0,0-.79,1.36c0,.5.36.7.79.45" style="fill:#FF2000"></path><g style="opacity:0.5"><path d="M122.92,103.83c.41-.24.75,0,.75.43v7.44a1.64,1.64,0,0,1-.75,1.3l-3.72,2.15c-.41.24-.75,0-.75-.43l0-7.45a1.67,1.67,0,0,1,.75-1.29Zm-1.4,9a1.74,1.74,0,0,0,.78-1.36c0-.5-.35-.7-.78-.45a1.72,1.72,0,0,0-.79,1.36c0,.5.36.7.79.45" style="fill:#fff"></path></g><path d="M126.71,93.43c1.63-.94,2.92-.11,2.83,1.82l-.16,3,4.33-2.5c1.48-.86,1.8,1.12.8,2.51,1,.29.72,2-.2,3.12.85.37.1,2.32-.93,3.12.68.28.1,2.36-1.09,3L128,110.05l-2.69,1.56c-.92.53-1.66.1-1.67-1v-6.18l1.7-4.13a16.6,16.6,0,0,0,1.34-6.24Z" style="fill:#fff"></path><path d="M357.89,141.66,334.65,155a4.41,4.41,0,0,0-1.69,1.71,4.49,4.49,0,0,0-.59,2.22v16.91a4.48,4.48,0,0,0,6.85,3.69l4-2.31.36.59a.34.34,0,0,0,.06.06h0l0,0h0c.67.44,1.84,1.07,2.1,1.2h0a.24.24,0,0,0,.3-.15l1.49-4.22h0l14.83-8.48a4.51,4.51,0,0,0,2.29-3.93v-17C364.74,142.08,359.92,140.5,357.89,141.66Z" style="fill:#FF2000"></path><path d="M338.69,157.75h0Z" style="fill:none"></path><path d="M343.62,177.81a.34.34,0,0,0,.06.06h0l0,0h0c.67.44,1.84,1.07,2.1,1.2h0a.24.24,0,0,1-.15-.11l-1.44-2.33.28-.16h0l-1.26.72Z" style="fill:#fff;opacity:0.2"></path><path d="M337.47,159.27a4.68,4.68,0,0,1,1.21-1.52h0a4.45,4.45,0,0,1,.55-.38L362.48,144a1.51,1.51,0,0,1,2.26,1.31c0-3.27-4.82-4.85-6.85-3.69L334.65,155a4.41,4.41,0,0,0-1.69,1.71Z" style="fill:#fff;opacity:0.4"></path><path d="M337,178.22V161.31a4.89,4.89,0,0,1,0-.54,4.62,4.62,0,0,1,.48-1.5L333,156.71a4.49,4.49,0,0,0-.59,2.22v16.91a4.48,4.48,0,0,0,6.85,3.69A1.51,1.51,0,0,1,337,178.22Z" style="fill:#fff;opacity:0.2"></path><path d="M352.88,162.14c-.35.2-.63,0-.64-.37v-6.31a1.39,1.39,0,0,1,.63-1.1l3.16-1.82c.35-.21.64,0,.64.36l0,6.32a1.4,1.4,0,0,1-.64,1.09Zm1.19-7.61a1.47,1.47,0,0,0-.67,1.15c0,.42.3.59.67.38a1.47,1.47,0,0,0,.67-1.15c0-.42-.31-.6-.67-.38" style="fill:#FF2000"></path><g style="opacity:0.5"><path d="M352.88,162.14c-.35.2-.63,0-.64-.37v-6.31a1.39,1.39,0,0,1,.63-1.1l3.16-1.82c.35-.21.64,0,.64.36l0,6.32a1.4,1.4,0,0,1-.64,1.09Zm1.19-7.61a1.47,1.47,0,0,0-.67,1.15c0,.42.3.59.67.38a1.47,1.47,0,0,0,.67-1.15c0-.42-.31-.6-.67-.38" style="fill:#fff"></path></g><path d="M349.66,171c-1.38.8-2.48.09-2.4-1.54l.13-2.59L343.72,169c-1.26.73-1.53-.94-.68-2.13-.86-.25-.61-1.71.17-2.64-.71-.32-.08-2,.79-2.66-.57-.23-.08-2,.92-2.58l3.61-2.08,2.29-1.32c.77-.45,1.41-.09,1.41.8v5.25l-1.44,3.5a14.18,14.18,0,0,0-1.14,5.29Z" style="fill:#fff"></path><path d="M169,120.31l22.66-13c2-1.14,6.69.41,6.69,3.6a1.48,1.48,0,0,0-2.21-1.28l-22.66,13a4.43,4.43,0,0,0-1.73,1.86l-4.4-2.5A4.41,4.41,0,0,1,169,120.31Z" style="fill:#FF2000"></path><path d="M171.72,124.48a4.43,4.43,0,0,0-.5,2v16.83a1.48,1.48,0,0,0,2.21,1.28,4.37,4.37,0,0,1-6.68-3.6V124.14a4.46,4.46,0,0,1,.57-2.16Z" style="fill:#FF2000"></path><path d="M169,120.31l22.66-13c2-1.14,6.69.41,6.69,3.6a1.48,1.48,0,0,0-2.21-1.28l-22.66,13a4.43,4.43,0,0,0-1.73,1.86l-4.4-2.5A4.41,4.41,0,0,1,169,120.31Z" style="fill:#fff;opacity:0.4"></path><path d="M171.72,124.48a4.43,4.43,0,0,0-.5,2v16.83a1.48,1.48,0,0,0,2.21,1.28,4.37,4.37,0,0,1-6.68-3.6V124.14a4.46,4.46,0,0,1,.57-2.16Z" style="fill:#fff;opacity:0.2"></path><path d="M196.11,109.62l-22.66,13a4.42,4.42,0,0,0-2.23,3.84v16.83a1.48,1.48,0,0,0,2.21,1.28l22.66-12.95a4.42,4.42,0,0,0,2.23-3.84V110.9A1.48,1.48,0,0,0,196.11,109.62Z" style="fill:#FF2000"></path><path d="M165.77,135.05l5.45,1v-7l-5.64,5.33A.38.38,0,0,0,165.77,135.05Z" style="fill:#FF2000"></path><path d="M171.22,129.08l-4.47-2.56-5.63,5.39a.37.37,0,0,0,.07.59l4.45,2.5Z" style="fill:#FF2000"></path><path d="M171.22,129.08l-4.47-2.56-5.63,5.39a.37.37,0,0,0,.07.59l4.45,2.5Z" style="fill:#fff;opacity:0.2"></path><path d="M188.24,119.19a2.66,2.66,0,0,1,2.63-.27c1.46.83,1.47,3.53,0,6l-.85,1.47-5.24,9.08-5.28-3-.85-.49c-1.46-.83-1.47-3.54,0-6.05a7.63,7.63,0,0,1,2.63-2.76,2.63,2.63,0,0,1,2.63-.27l.86.48.84-1.46A7.58,7.58,0,0,1,188.24,119.19Z" style="fill:#fff"></path><path d="M389,216.26l22.89-13.14c2-1.15,6.76.41,6.76,3.64a1.5,1.5,0,0,0-2.24-1.3L393.53,218.6a4.41,4.41,0,0,0-1.74,1.87L387.34,218A4.44,4.44,0,0,1,389,216.26Z" style="fill:#FF2000"></path><path d="M391.79,220.47a4.34,4.34,0,0,0-.51,2v17a1.49,1.49,0,0,0,2.23,1.29,4.41,4.41,0,0,1-6.75-3.63v-17a4.45,4.45,0,0,1,.58-2.19Z" style="fill:#FF2000"></path><path d="M389,216.26l22.89-13.14c2-1.15,6.76.41,6.76,3.64a1.5,1.5,0,0,0-2.24-1.3L393.53,218.6a4.41,4.41,0,0,0-1.74,1.87L387.34,218A4.44,4.44,0,0,1,389,216.26Z" style="fill:#fff;opacity:0.4"></path><path d="M391.79,220.47a4.34,4.34,0,0,0-.51,2v17a1.49,1.49,0,0,0,2.23,1.29,4.41,4.41,0,0,1-6.75-3.63v-17a4.45,4.45,0,0,1,.58-2.19Z" style="fill:#fff;opacity:0.2"></path><path d="M416.42,205.46,393.53,218.6a4.48,4.48,0,0,0-2.25,3.88v17a1.49,1.49,0,0,0,2.23,1.29l22.89-13.08a4.46,4.46,0,0,0,2.26-3.88V206.76A1.5,1.5,0,0,0,416.42,205.46Z" style="fill:#FF2000"></path><path d="M385.77,231.15l5.5,1v-7.06l-5.69,5.39A.38.38,0,0,0,385.77,231.15Z" style="fill:#FF2000"></path><path d="M391.27,225.12l-4.51-2.58L381.07,228a.38.38,0,0,0,.07.6l4.5,2.53Z" style="fill:#FF2000"></path><path d="M391.27,225.12l-4.51-2.58L381.07,228a.38.38,0,0,0,.07.6l4.5,2.53Z" style="fill:#fff;opacity:0.2"></path><path d="M405.37,216.43c3.39-2,6.15-.39,6.16,3.52a13.48,13.48,0,0,1-6.12,10.61c-3.4,2-6.16.39-6.17-3.51A13.5,13.5,0,0,1,405.37,216.43Zm0,9.68a5.4,5.4,0,0,1,2.72-.85c-.28-1.27-1.39-1.71-2.72-.94a6.28,6.28,0,0,0-2.72,4.08,10.58,10.58,0,0,1,2.72-2.29m2.21-4.69a2.42,2.42,0,0,0,1.1-1.9c0-.69-.5-1-1.1-.62a2.4,2.4,0,0,0-1.1,1.89c0,.7.5,1,1.1.63m-5.54,1.94c0,.69.5,1,1.1.62a2.41,2.41,0,0,0,1.1-1.89c0-.7-.5-1-1.1-.63a2.42,2.42,0,0,0-1.1,1.9" style="fill:#fff"></path><path d="M242.21,75.78l-22.9-13.14c-2-1.15-6.75.41-6.75,3.64A1.49,1.49,0,0,1,214.79,65l22.9,13.13A4.48,4.48,0,0,1,239.43,80l4.44-2.52A4.41,4.41,0,0,0,242.21,75.78Z" style="fill:#FF2000"></path><path d="M239.43,80a4.49,4.49,0,0,1,.5,2V99a1.49,1.49,0,0,1-2.23,1.3,4.42,4.42,0,0,0,6.75-3.64v-17a4.48,4.48,0,0,0-.58-2.19Z" style="fill:#FF2000"></path><path d="M242.21,75.78l-22.9-13.14c-2-1.15-6.75.41-6.75,3.64A1.49,1.49,0,0,1,214.79,65l22.9,13.13A4.48,4.48,0,0,1,239.43,80l4.44-2.52A4.41,4.41,0,0,0,242.21,75.78Z" style="fill:#fff;opacity:0.4"></path><path d="M239.43,80a4.49,4.49,0,0,1,.5,2V99a1.49,1.49,0,0,1-2.23,1.3,4.42,4.42,0,0,0,6.75-3.64v-17a4.48,4.48,0,0,0-.58-2.19Z" style="fill:#fff;opacity:0.2"></path><path d="M214.79,65l22.9,13.13A4.47,4.47,0,0,1,239.93,82V99a1.49,1.49,0,0,1-2.23,1.3L214.81,87.21a4.46,4.46,0,0,1-2.25-3.88v-17A1.49,1.49,0,0,1,214.79,65Z" style="fill:#FF2000"></path><path d="M245.44,90.68l-5.5,1v-7L245.63,90A.38.38,0,0,1,245.44,90.68Z" style="fill:#FF2000"></path><path d="M239.94,84.65l4.51-2.59,5.69,5.44a.37.37,0,0,1-.07.6l-4.5,2.53Z" style="fill:#FF2000"></path><path d="M239.94,84.65l4.51-2.59,5.69,5.44a.37.37,0,0,1-.07.6l-4.5,2.53Z" style="fill:#fff;opacity:0.2"></path><path d="M232,86.57c0,3.9-2.78,5.47-6.17,3.51a13.49,13.49,0,0,1-6.13-10.61c0-3.9,2.77-5.48,6.17-3.52A13.54,13.54,0,0,1,232,86.57Zm-6.16-.94a10.79,10.79,0,0,1,2.72,2.29,6.23,6.23,0,0,0-2.71-4.08c-1.33-.77-2.45-.33-2.73.94a5.38,5.38,0,0,1,2.72.85m-2.21-4.69c.61.35,1.1.07,1.1-.63a2.43,2.43,0,0,0-1.09-1.89c-.61-.35-1.1-.07-1.1.63a2.38,2.38,0,0,0,1.09,1.89m5.54,1.94a2.43,2.43,0,0,0-1.09-1.9c-.61-.35-1.1-.07-1.1.63a2.41,2.41,0,0,0,1.09,1.89c.61.35,1.1.07,1.1-.62" style="fill:#fff"></path><path d="M83.52,156.72,55.89,172.56a5.45,5.45,0,0,0-2.71,4.68v20.1c0,3.62,3.08,6.08,7.13,3.77l3.84-2.2h0l.79-.45.17-.09h0l5.19-3h0l17.63-10.07a5.4,5.4,0,0,0,2.72-4.69V160.48C90.65,156.59,85.94,155.33,83.52,156.72Z" style="fill:#FF2000"></path><path d="M59.67,175.22Z" style="fill:none"></path><path d="M58.23,177a5.5,5.5,0,0,1,1.44-1.81h0a4.81,4.81,0,0,1,.66-.45L88,158.92a1.8,1.8,0,0,1,2.7,1.56c0-3.89-4.71-5.15-7.13-3.76L55.89,172.56a5.46,5.46,0,0,0-2,2Z" style="fill:#fff;opacity:0.4"></path><path d="M57.62,199.55v-20.1a4.49,4.49,0,0,1,0-.64,5.71,5.71,0,0,1,.57-1.78l-4.35-2.43a5.45,5.45,0,0,0-.7,2.64v20.1c0,3.62,3.08,6.08,7.13,3.77A1.8,1.8,0,0,1,57.62,199.55Z" style="fill:#fff;opacity:0.2"></path><polygon points="64.94 198.46 65.11 198.37 65.11 198.37 64.94 198.46" style="fill:none"></polygon><polygon points="64.15 198.91 64.94 198.46 64.15 198.91 64.15 198.91" style="fill:#FF2000"></polygon><polygon points="94.22 170.26 90.65 168.19 90.65 169.24 94.22 170.26" style="fill:#FF2000"></polygon><polygon points="94.22 170.26 90.65 168.19 90.65 169.24 94.22 170.26" style="fill:#fff;opacity:0.4"></polygon><path d="M90,169.06l4,1.12a.87.87,0,0,1,.35,1.48l-4.16,3.85Z" style="fill:#FF2000"></path><path d="M73.78,172.51c3.92-2.27,7.1-.45,7.12,4.05a15.57,15.57,0,0,1-7.07,12.24c-3.92,2.26-7.1.45-7.11-4.05A15.56,15.56,0,0,1,73.78,172.51Zm0,12A7.24,7.24,0,0,0,77,179.79a12.19,12.19,0,0,1-3.14,2.65,6.12,6.12,0,0,1-3.14,1c.32,1.48,1.61,2,3.15,1.09m-3.85-4c0,.81.57,1.13,1.27.72A2.78,2.78,0,0,0,72.51,179c0-.81-.57-1.13-1.27-.73A2.79,2.79,0,0,0,70,180.49m6.39-2.23a2.82,2.82,0,0,0,1.27-2.19c0-.8-.57-1.13-1.27-.72a2.78,2.78,0,0,0-1.27,2.18c0,.81.58,1.13,1.27.73" style="fill:#fff"></path><path d="M317.27,89.61l25.39,14.56A4.93,4.93,0,0,1,344.5,106a4.86,4.86,0,0,1,.65,2.43v18.47c0,3.32-2.83,5.58-6.55,3.46l-3.53-2h0l-.72-.41-.16-.09h0l-4.77-2.72h0l-16.2-9.26a5,5,0,0,1-2.49-4.3V93.07C310.73,89.49,315.05,88.33,317.27,89.61Z" style="fill:#FF2000"></path><path d="M339.18,106.61h0Z" style="fill:none"></path><path d="M340.51,108.27a5.06,5.06,0,0,0-1.32-1.66h0a3.73,3.73,0,0,0-.6-.41L313.2,91.63a1.65,1.65,0,0,0-2.47,1.44c0-3.58,4.32-4.74,6.54-3.46l25.39,14.56A4.93,4.93,0,0,1,344.5,106Z" style="fill:#fff;opacity:0.4"></path><path d="M341.07,129V110.49a3.77,3.77,0,0,0,0-.58,4.92,4.92,0,0,0-.52-1.64l4-2.23a4.86,4.86,0,0,1,.65,2.43v18.47c0,3.32-2.83,5.58-6.55,3.46A1.65,1.65,0,0,0,341.07,129Z" style="fill:#fff;opacity:0.2"></path><polygon points="334.35 127.97 334.19 127.88 334.19 127.88 334.35 127.97" style="fill:none"></polygon><polygon points="335.07 128.38 334.35 127.97 335.07 128.38 335.07 128.38" style="fill:#FF2000"></polygon><polygon points="307.44 102.06 310.73 100.15 310.73 101.11 307.44 102.06" style="fill:#FF2000"></polygon><polygon points="307.44 102.06 310.73 100.15 310.73 101.11 307.44 102.06" style="fill:#fff;opacity:0.4"></polygon><path d="M311.3,101l-3.67,1a.8.8,0,0,0-.33,1.36l3.82,3.54Z" style="fill:#FF2000"></path><path d="M332.71,115.36c0,4.14-2.94,5.81-6.53,3.73a14.32,14.32,0,0,1-6.5-11.25c0-4.13,2.94-5.8,6.54-3.72A14.29,14.29,0,0,1,332.71,115.36Zm-6.52-.23c1.41.82,2.59.36,2.89-1a5.8,5.8,0,0,1-2.89-.9,11.27,11.27,0,0,1-2.88-2.43,6.59,6.59,0,0,0,2.88,4.32m3.53-3.67a2.55,2.55,0,0,0-1.16-2c-.64-.37-1.16-.07-1.17.67a2.57,2.57,0,0,0,1.16,2c.65.37,1.17.07,1.17-.66m-5.87-2.06c.64.37,1.16.07,1.16-.66a2.53,2.53,0,0,0-1.15-2c-.65-.37-1.17-.08-1.17.66a2.57,2.57,0,0,0,1.16,2" style="fill:#fff"></path></g></svg>
