<svg xmlns="http://www.w3.org/2000/svg" viewBox="0 0 500 500"><g id="freepik--background-simple--inject-5"><path d="M470,184.65a225.58,225.58,0,0,0-9.61-22.59C428.69,97.58,369.69,53.86,297.06,42.37q-4.69-.75-9.42-1.31c-59.28-7.13-142.27,1.76-176.11,56.56-17.57,28.46-10.36,64.35-29,92C58.4,225.51,27.38,243.44,21.64,299.45c-4.23,41.21-2.26,85.75,26.88,118.62,34.34,38.75,93.27,52.09,143.61,44.65,48.86-7.21,92.6-31.34,135.33-54,40.56-21.51,87-37.13,119.82-70C488.72,297.19,488.69,236.48,470,184.65Z" style="fill:#FD0030"></path><path d="M470,184.65a225.58,225.58,0,0,0-9.61-22.59C428.69,97.58,369.69,53.86,297.06,42.37q-4.69-.75-9.42-1.31c-59.28-7.13-142.27,1.76-176.11,56.56-17.57,28.46-10.36,64.35-29,92C58.4,225.51,27.38,243.44,21.64,299.45c-4.23,41.21-2.26,85.75,26.88,118.62,34.34,38.75,93.27,52.09,143.61,44.65,48.86-7.21,92.6-31.34,135.33-54,40.56-21.51,87-37.13,119.82-70C488.72,297.19,488.69,236.48,470,184.65Z" style="fill:#fff;opacity:0.7000000000000001"></path></g><g id="freepik--Plants--inject-5"><g style="opacity:0.2"><path d="M46.39,173.09c3.68-.2,11-4.1,11-4.1s-4-4-4.31-4.25c-3.33-2.56-11.27-5.56-15.15-2.9a5.58,5.58,0,0,0-.84,8.25C39.21,172.62,43.25,173.27,46.39,173.09Z"></path><path d="M121.78,137c.09,0-1.13-5.57-1.25-5.92-1.36-4-6.33-10.86-11-10.77a5.56,5.56,0,0,0-5.25,6.41c.39,3.3,3.4,6.07,6.12,7.65C113.55,136.24,121.78,137,121.78,137Z"></path><path d="M130.28,99.17c-4.4,1.66-6.47,9.9-6.26,14.09,0,.37.94,6,1,6l.09,0c-.34,1.3-.68,2.69-1,4.22-.62,2.84-1.29,6-1.79,9.58a98.54,98.54,0,0,0-1.07,11.5,73.14,73.14,0,0,0,.65,12.9l0,.15c-.6-1.24-2.4-4.66-2.56-4.9-2.37-3.48-9-8.81-13.49-7.48a5.56,5.56,0,0,0-3.37,7.57c1.25,3.08,4.89,4.95,7.92,5.76,3.42.92,11-.35,11.6-.46a97.15,97.15,0,0,0,3,12.81c.74,2.45,1.55,4.9,2.4,7.34-.55-1.06-1-2-1.14-2.12-2.36-3.48-9-8.81-13.49-7.48a5.57,5.57,0,0,0-3.37,7.57c1.26,3.08,4.89,5,7.93,5.76s9.55-.13,11.26-.4c.34.93.66,1.87,1,2.8,1.63,4.47,3.27,8.92,4.75,13.34.52,1.56,1,3.11,1.44,4.66-.49-.94-.91-1.72-1-1.84-2.36-3.47-9-8.8-13.49-7.48a5.58,5.58,0,0,0-3.37,7.58c1.25,3.08,4.89,4.95,7.93,5.76s8.92,0,11-.36c.43,1.61.86,3.21,1.2,4.78.2,1.08.48,2.11.63,3.2s.34,2.15.5,3.21c.25,2.06.52,4.17.7,6.18.15,1.4.26,2.73.37,4.08-.5-1.56-1.54-4.58-1.66-4.83a21.65,21.65,0,0,0-7.34-8.08,6.25,6.25,0,0,0-.62-1.06,5.57,5.57,0,0,0-8.21-1.15c-3.51,3.14-2.49,11.56-.78,15.41.1.22,1.46,2.56,2.34,4-.65-.78-1.27-1.54-1.95-2.34-1.33-1.58-2.71-3.11-4.18-4.78l-2.25-2.35c-.73-.8-1.61-1.55-2.41-2.34-1.92-1.79-3.94-3.51-6-5.2,1.38-1.17,6.22-5.4,7.59-8.24s2.31-6.81.79-9.76a5.56,5.56,0,0,0-7.94-2.38c-4,2.57-4.21,11-3.11,15.11.07.25,1.18,3.07,1.83,4.61-1.26-1-2.51-2-3.82-3-3.76-2.81-7.66-5.55-11.54-8.29q-1.78-1.26-3.54-2.54c.49-.41,6.36-5.31,7.89-8.49,1.36-2.83,2.3-6.81.78-9.77a5.56,5.56,0,0,0-7.94-2.37c-3.94,2.56-4.2,11.05-3.11,15.1.09.31,1.7,4.37,2.16,5.38-2.6-1.87-5.16-3.75-7.62-5.71a96,96,0,0,1-9.45-8.52c.23-.19,6.37-5.28,7.94-8.54,1.36-2.83,2.31-6.81.79-9.76a5.56,5.56,0,0,0-7.94-2.38c-4,2.57-4.21,11.05-3.11,15.11.07.26,1.3,3.36,1.91,4.82l-.22.14a71.27,71.27,0,0,1-7.81-10.14c-1.29-2-2.41-3.92-3.46-5.84,1.24-.83,6.87-4.69,8.61-7.47s3-6.51,1.85-9.62a5.57,5.57,0,0,0-7.63-3.23c-4.2,2.12-5.39,10.52-4.75,14.67,0,.23.65,2.49,1.12,4.12-.46-.87-1-1.77-1.38-2.62-1.6-3.18-2.87-6.18-4-8.86-.61-1.53-1.14-2.92-1.62-4.23.8-1.45,3.92-7.33,4.18-10.54s-.31-7.18-2.79-9.39a5.57,5.57,0,0,0-8.26.65c-2.76,3.81.05,11.82,2.54,15.21.22.29,4.11,4.48,4.15,4.41l0-.09c.43,1.27.91,2.62,1.47,4.09,1,2.7,2.25,5.75,3.79,9A99.46,99.46,0,0,0,61,175.51a72.13,72.13,0,0,0,7.65,10.4l.11.11c-1.18-.7-4.56-2.56-4.84-2.67-3.89-1.6-12.34-2.39-15.37,1.2a5.58,5.58,0,0,0,1.36,8.18c2.75,1.87,6.81,1.43,9.79.43,3.36-1.12,9-6.36,9.42-6.77a99.25,99.25,0,0,0,9.57,9c2,1.64,4,3.23,6,4.79-1-.57-2-1.08-2.12-1.14-3.89-1.59-12.34-2.39-15.38,1.21a5.56,5.56,0,0,0,1.37,8.17c2.74,1.88,6.81,1.43,9.79.44s7.89-5.38,9.17-6.55L90,204.11c3.82,2.83,7.65,5.64,11.32,8.51,1.29,1,2.53,2,3.77,3.09l-1.84-1c-3.89-1.59-12.34-2.39-15.38,1.21a5.57,5.57,0,0,0,1.37,8.17C92,226,96,225.54,99,224.54s7.42-5,8.94-6.34c1.24,1.1,2.48,2.2,3.63,3.32.77.79,1.57,1.49,2.3,2.32l2.19,2.4c1.34,1.58,2.73,3.2,4,4.77.89,1.09,1.72,2.14,2.56,3.19-1.28-1-3.82-3-4.05-3.1-3.6-2.17-11.83-4.24-15.38-1.14a5.57,5.57,0,0,0,.11,8.29c2.43,2.27,6.52,2.45,9.61,1.91,3.41-.59,9.52-4.72,10.28-5.24,1.38,1.76,2.7,3.48,3.92,5.12,4.22,5.63,7.52,10.48,9.79,13.92l2.85-1.44-.16-.22c-2.38-3.45-5.84-8.31-10.26-14-1.39-1.78-2.91-3.66-4.5-5.58a59.23,59.23,0,0,0,4.38-5.6c3.33,1.24,10.22,1.18,11.1,1.16.19,2.23.34,4.39.46,6.43.4,7,.48,12.89.48,17l3.12-1.58c-.1-4-.32-9.39-.82-15.63-.18-2.26-.41-4.66-.67-7.14.87-.23,8-2.19,10.67-4.39,2.42-2,4.95-5.22,4.8-8.54a5.56,5.56,0,0,0-6.21-5.48c-4.66.68-8.45,8.27-9.15,12.41,0,.25-.2,3-.26,4.66-.12-1-.21-2-.34-3-.24-2.05-.54-4.1-.86-6.29l-.57-3.2c-.17-1.08-.49-2.19-.72-3.29-.61-2.55-1.35-5.1-2.16-7.66,1.8-.21,8.17-1.06,10.88-2.68s5.68-4.41,6-7.71a5.57,5.57,0,0,0-5.32-6.36c-4.7,0-9.6,6.89-10.92,10.88-.09.25-.71,3.22-1,4.86-.5-1.53-1-3.07-1.54-4.6-1.58-4.43-3.33-8.86-5.05-13.28-.53-1.36-1-2.72-1.56-4.07.64-.07,8.24-.93,11.27-2.74,2.7-1.6,5.69-4.4,6-7.71a5.58,5.58,0,0,0-5.32-6.36c-4.7,0-9.6,6.9-10.92,10.89-.1.3-1,4.57-1.17,5.67-1.13-3-2.24-6-3.21-9a98.82,98.82,0,0,1-3.18-12.32c.3,0,8.23-.88,11.33-2.74,2.7-1.61,5.69-4.4,6.05-7.71a5.57,5.57,0,0,0-5.32-6.36c-4.7,0-9.6,6.9-10.92,10.88-.09.27-.77,3.52-1.06,5.08h-.27A71.36,71.36,0,0,1,122,144.5c0-2.36.15-4.6.34-6.79,1.49,0,8.32-.12,11.3-1.48s6.13-3.75,6.85-7a5.56,5.56,0,0,0-4.58-6.9c-4.67-.56-10.3,5.8-12.06,9.62-.09.2-.83,2.42-1.34,4.05.1-1,.19-2,.3-2.95.42-3.53,1-6.74,1.58-9.58.33-1.61.66-3.06,1-4.42,1.46-.77,7.31-4,9.29-6.49s3.72-6.16,2.86-9.37A5.57,5.57,0,0,0,130.28,99.17Z"></path></g><g style="opacity:0.2"><path d="M355.88,216.07c2.32,2.46,9.35,5.27,9.35,5.27s.45-5.2.44-5.53c-.17-3.85-2.75-11.18-6.91-12.33a5.11,5.11,0,0,0-6.28,4.28C352,210.76,353.91,214,355.88,216.07Z"></path><path d="M425.66,247.6c0,.07,3.23-4.08,3.41-4.37,2-3.3,3.87-10.84,1-14.09a5.1,5.1,0,0,0-7.59.11c-2.08,2.22-2.24,6-1.75,8.8C421.34,241.38,425.65,247.6,425.66,247.6Z"></path><path d="M457.19,231.23c-3.77-2.11-10.75,1.3-13.57,3.92-.25.23-3.65,4.21-3.58,4.24l.09,0c-1.11.52-2.29,1.11-3.57,1.77-2.35,1.23-5,2.65-7.77,4.39a94.24,94.24,0,0,0-8.68,6,67,67,0,0,0-8.66,8.07l-.09.11c.52-1.16,1.85-4.43,1.93-4.69,1-3.71.87-11.48-2.72-13.87a5.11,5.11,0,0,0-7.3,2.11c-1.42,2.69-.58,6.35.64,8.95,1.38,2.94,6.73,7.5,7.16,7.86a89.78,89.78,0,0,0-7.2,9.66c-1.28,2-2.51,4-3.72,6,.41-1,.77-1.92.81-2,1-3.71.88-11.48-2.72-13.86A5.09,5.09,0,0,0,391,262c-1.42,2.69-.59,6.34.64,8.95s5.72,6.62,6.93,7.65c-.46.79-.92,1.57-1.37,2.36-2.18,3.77-4.33,7.55-6.55,11.2-.78,1.28-1.6,2.52-2.42,3.76.37-.9.67-1.66.71-1.78,1-3.71.87-11.49-2.72-13.87a5.1,5.1,0,0,0-7.3,2.11c-1.42,2.69-.58,6.35.64,8.95s5.29,6.23,6.72,7.47c-.88,1.24-1.75,2.49-2.65,3.66-.63.78-1.19,1.58-1.87,2.33l-1.95,2.25c-1.29,1.38-2.62,2.82-3.92,4.14-.89.92-1.76,1.78-2.63,2.66.79-1.27,2.29-3.79,2.4-4a19.84,19.84,0,0,0,1.33-9.9,5.93,5.93,0,0,0,.38-1.07,5.11,5.11,0,0,0-4.05-6.43c-4.26-.61-9.56,5.08-11.25,8.54-.1.21-.93,2.54-1.44,4,.17-.91.33-1.8.49-2.74.32-1.87.59-3.74.88-5.76.1-1,.21-2,.32-3s.14-2,.22-3.07c.12-2.4.13-4.83.09-7.29,1.63.28,7.45,1.18,10.25.46s6.14-2.4,7.31-5.21a5.11,5.11,0,0,0-3-7c-4.13-1.25-10.23,3.57-12.42,6.74-.14.2-1.46,2.64-2.16,4,0-1.47-.06-2.94-.15-4.43-.25-4.3-.64-8.65-1-13-.11-1.32-.21-2.65-.31-4,.58.1,7.48,1.32,10.61.51,2.79-.71,6.14-2.4,7.31-5.21a5.11,5.11,0,0,0-3-7c-4.13-1.25-10.23,3.58-12.42,6.74-.17.24-2.06,3.76-2.5,4.68-.22-2.92-.42-5.83-.49-8.71a89.58,89.58,0,0,1,.39-11.65c.27.05,7.46,1.36,10.67.53,2.78-.72,6.13-2.4,7.3-5.21a5.11,5.11,0,0,0-3-7c-4.12-1.25-10.22,3.58-12.42,6.74-.14.21-1.59,2.89-2.24,4.18l-.24-.07A65.66,65.66,0,0,1,363.5,228c.62-2.06,1.32-4,2.05-5.87,1.32.38,7.34,2.05,10.31,1.62s6.36-1.71,7.84-4.37a5.11,5.11,0,0,0-2.24-7.26c-4-1.7-10.56,2.43-13.08,5.33-.14.16-1.36,1.92-2.23,3.21.34-.83.68-1.71,1-2.5,1.28-3,2.64-5.67,3.87-8,.7-1.33,1.37-2.52,2-3.63,1.49-.3,7.46-1.58,9.85-3.29s4.86-4.46,4.94-7.5a5.1,5.1,0,0,0-5.33-5.41c-4.3.32-8.25,7-9.16,10.76-.07.33-.72,5.53-.64,5.51l.09,0c-.63,1.06-1.3,2.19-2,3.45-1.27,2.33-2.7,5-4.05,8a91.49,91.49,0,0,0-3.91,9.83,65.56,65.56,0,0,0-2.77,11.5s0,.09,0,.14c-.2-1.25-.9-4.71-1-5-1.18-3.67-5.6-10.06-9.92-10.07a5.12,5.12,0,0,0-4.92,5.79c.31,3,3,5.61,5.47,7.11,2.77,1.69,9.75,2.54,10.31,2.6a89.75,89.75,0,0,0-.67,12c0,2.35.09,4.71.21,7.07-.22-1.07-.41-2-.46-2.16-1.17-3.66-5.6-10.06-9.91-10.06a5.09,5.09,0,0,0-4.92,5.78c.3,3,3,5.62,5.47,7.12s8.43,2.36,10,2.56l.15,2.72c.28,4.35.57,8.68.72,12.95.06,1.5.06,3,.06,4.47-.19-.95-.35-1.76-.39-1.87-1.18-3.67-5.61-10.06-9.92-10.07a5.1,5.1,0,0,0-4.92,5.79c.3,3,3,5.61,5.47,7.11s7.85,2.27,9.72,2.52c0,1.52-.08,3-.19,4.51-.09,1-.12,2-.27,3l-.39,2.95c-.31,1.87-.63,3.8-1,5.61-.24,1.27-.48,2.47-.73,3.68,0-1.5-.18-4.43-.21-4.67-.61-3.8-4-10.79-8.28-11.45a5.09,5.09,0,0,0-5.74,5c-.16,3,2.13,6,4.33,7.86,2.42,2,8.92,3.89,9.73,4.11-.41,2-.84,3.94-1.26,5.77-1.46,6.27-2.91,11.45-4,15.08l2.68,1.14a2.17,2.17,0,0,0,.07-.24c1-3.7,2.37-9,3.72-15.43.43-2,.85-4.2,1.26-6.44a56.23,56.23,0,0,0,6.51-.24c1.09,3.06,5.2,7.85,5.73,8.46-1.45,1.44-2.87,2.83-4.23,4.12-4.68,4.42-8.75,7.94-11.64,10.37l2.95,1.26c2.77-2.46,6.38-5.76,10.46-9.8,1.48-1.45,3-3,4.61-4.68.68.47,6.25,4.32,9.37,4.89,2.83.51,6.58.38,8.82-1.68a5.09,5.09,0,0,0,.17-7.59c-3.22-2.86-10.78-1-14.09.92-.2.11-2.18,1.6-3.42,2.56.64-.67,1.27-1.32,1.92-2,1.3-1.38,2.55-2.8,3.91-4.32l1.9-2.29c.65-.75,1.25-1.63,1.88-2.45,1.42-1.92,2.78-3.95,4.09-6,1.21,1.13,5.57,5.09,8.3,6s6.44,1.38,9-.32A5.09,5.09,0,0,0,407.9,296c-2.75-3.32-10.5-2.66-14.07-1.23-.22.09-2.67,1.4-4,2.15.79-1.25,1.57-2.49,2.32-3.78,2.17-3.73,4.24-7.57,6.33-11.38.63-1.18,1.28-2.33,1.93-3.5.43.41,5.51,5.23,8.57,6.29,2.71.94,6.44,1.38,9-.32a5.11,5.11,0,0,0,1.32-7.48c-2.75-3.32-10.5-2.66-14.08-1.23-.27.11-3.79,2-4.66,2.53,1.42-2.56,2.87-5.09,4.39-7.54a90.73,90.73,0,0,1,6.75-9.5c.2.19,5.48,5.25,8.61,6.33,2.72.94,6.44,1.38,9-.32a5.1,5.1,0,0,0,1.32-7.48c-2.75-3.32-10.5-2.66-14.07-1.23-.24.1-2.92,1.54-4.18,2.25l-.16-.19a65.71,65.71,0,0,1,8.4-8.17c1.65-1.38,3.31-2.61,4.95-3.77.89,1,5,5.76,7.7,7.05s6.26,2.08,8.95.67a5.1,5.1,0,0,0,2.14-7.29c-2.37-3.6-10.14-3.8-13.85-2.77-.21.06-2.19.85-3.63,1.45.74-.51,1.51-1.05,2.23-1.53,2.73-1.79,5.33-3.26,7.65-4.55,1.32-.72,2.53-1.34,3.67-1.92,1.41.57,7.09,2.79,10,2.69s6.5-1,8.25-3.53A5.1,5.1,0,0,0,457.19,231.23Z"></path></g><g style="opacity:0.2"><path d="M76.67,318.34c3.7,1.21,12.36.17,12.37.17s-2.42-5.5-2.62-5.83c-2.29-3.79-9-9.79-13.78-8.65a5.88,5.88,0,0,0-4,7.79C69.79,315.13,73.52,317.32,76.67,318.34Z"></path><path d="M164.64,311.74c.09,0,1-5.92,1-6.3.18-4.44-2.06-13.11-6.73-14.83a5.89,5.89,0,0,0-7.62,4.3c-.87,3.4,1,7.27,3.09,9.87C156.84,307.82,164.64,311.74,164.64,311.74Z"></path><path d="M187.5,277.78c-5-.06-10.16,7.25-11.56,11.46-.12.36-1.37,6.26-1.28,6.26l.11,0c-.83,1.15-1.71,2.39-2.63,3.76-1.7,2.55-3.59,5.45-5.43,8.74a103.22,103.22,0,0,0-5.46,10.89,77.92,77.92,0,0,0-4.3,12.94l0,.16c-.12-1.45-.57-5.5-.64-5.81-1-4.32-5.45-12.09-10.4-12.52a5.88,5.88,0,0,0-6.22,6.16c.05,3.51,2.91,6.74,5.59,8.7,3,2.21,10.94,3.86,11.58,4a103.22,103.22,0,0,0-2,13.75c-.22,2.69-.35,5.41-.45,8.14-.14-1.26-.28-2.37-.31-2.53-1-4.32-5.45-12.09-10.4-12.52a5.88,5.88,0,0,0-6.22,6.16c.05,3.51,2.91,6.74,5.59,8.7s9.44,3.53,11.23,3.92l-.09,3.13c-.11,5-.2,10-.44,14.95-.08,1.73-.23,3.43-.37,5.13-.12-1.11-.24-2.05-.27-2.19-1-4.32-5.45-12.09-10.4-12.52a5.88,5.88,0,0,0-6.21,6.16c.05,3.51,2.91,6.74,5.58,8.7s8.79,3.38,10.91,3.85c-.19,1.74-.38,3.48-.65,5.16-.21,1.14-.33,2.25-.61,3.38s-.49,2.25-.73,3.36c-.54,2.11-1.09,4.3-1.68,6.34-.39,1.43-.79,2.79-1.2,4.15.11-1.72.24-5.1.22-5.38a22.85,22.85,0,0,0-4.12-10.76,7,7,0,0,0-.21-1.28,5.87,5.87,0,0,0-7.64-4.27c-4.65,1.73-6.87,10.41-6.67,14.84,0,.26.46,3.09.77,4.86-.34-1-.66-2-1-3.05-.71-2.06-1.47-4.1-2.29-6.3l-1.31-3.17c-.41-1.07-1-2.15-1.47-3.23-1.2-2.49-2.53-5-3.93-7.42,1.81-.62,8.19-2.92,10.62-5.19s4.88-5.82,4.52-9.31a5.89,5.89,0,0,0-6.9-5.38c-4.87,1-8.38,9.26-8.85,13.67,0,.28,0,3.48,0,5.24-.85-1.47-1.69-2.94-2.6-4.4-2.63-4.21-5.42-8.39-8.18-12.58-.85-1.28-1.68-2.57-2.51-3.85.64-.22,8.29-2.79,11-5.33,2.43-2.26,4.88-5.82,4.52-9.31a5.88,5.88,0,0,0-6.9-5.37c-4.87,1-8.37,9.25-8.85,13.66,0,.33,0,4.94.06,6.11-1.83-2.83-3.64-5.66-5.3-8.53a102.88,102.88,0,0,1-6-12c.3-.1,8.29-2.75,11.09-5.35,2.42-2.27,4.87-5.82,4.51-9.31a5.89,5.89,0,0,0-6.9-5.38C99,321,95.45,329.2,95,333.61c0,.29,0,3.8,0,5.47l-.27.06a75.64,75.64,0,0,1-3.8-13c-.51-2.43-.87-4.78-1.16-7.07,1.54-.35,8.55-2,11.32-4.05s5.49-5.24,5.51-8.75a5.88,5.88,0,0,0-6.27-6.1c-4.94.47-9.33,8.28-10.29,12.61,0,.23-.31,2.69-.48,4.48-.11-1-.25-2.11-.35-3.1-.35-3.74-.45-7.19-.51-10.24,0-1.74,0-3.31,0-4.78,1.34-1.12,6.66-5.71,8.14-8.77s2.46-7.18.86-10.31a5.88,5.88,0,0,0-8.38-2.52c-4.17,2.69-4.47,11.65-3.32,15.93.1.37,2.32,6,2.39,5.93l.08-.07c-.06,1.41-.1,2.93-.12,4.59,0,3.06,0,6.51.29,10.28a103.64,103.64,0,0,0,1.47,12.09,76,76,0,0,0,3.54,13.16l.06.16c-.89-1.15-3.51-4.27-3.73-4.49-3.22-3.06-11.22-7.08-15.59-4.71A5.88,5.88,0,0,0,72.65,339c2,2.89,6.15,4,9.46,4.17,3.73.18,11.26-2.81,11.85-3.05a106.6,106.6,0,0,0,6,12.54c1.31,2.36,2.69,4.7,4.12,7-.81-1-1.54-1.82-1.65-1.93-3.22-3.06-11.22-7.08-15.59-4.71A5.87,5.87,0,0,0,85,361.63c2,2.9,6.15,4,9.46,4.18s9.82-2.26,11.53-2.93c.55.89,1.09,1.78,1.65,2.67,2.68,4.25,5.37,8.47,7.88,12.7.88,1.49,1.7,3,2.52,4.49-.71-.86-1.33-1.58-1.43-1.68-3.21-3.05-11.22-7.08-15.58-4.7a5.87,5.87,0,0,0-1.79,8.56c2,2.9,6.15,4,9.46,4.18s9.2-2,11.22-2.81c.8,1.55,1.6,3.11,2.3,4.66.46,1.07,1,2.06,1.37,3.16s.83,2.14,1.23,3.2c.72,2.06,1.46,4.19,2.11,6.22.46,1.41.87,2.76,1.28,4.12-.86-1.49-2.61-4.38-2.79-4.61-2.71-3.51-10-8.69-14.69-7a5.88,5.88,0,0,0-3.06,8.2c1.52,3.16,5.47,4.9,8.72,5.56,3.57.72,11.17-1,12.11-1.21.69,2.25,1.33,4.45,1.9,6.53,2,7.15,3.38,13.18,4.3,17.44l3.35-.32A2.86,2.86,0,0,0,138,432c-1-4.3-2.56-10.41-4.75-17.66-.68-2.29-1.46-4.72-2.28-7.21a65.32,65.32,0,0,0,6.45-3.84c2.8,2.5,9.59,5.08,10.47,5.4-.67,2.26-1.34,4.45-2,6.5-2.28,7.06-4.45,12.86-6,16.92l3.68-.36c1.45-4,3.28-9.35,5.17-15.68.7-2.29,1.39-4.75,2.08-7.28,1,.11,8.71.91,12.18-.23,3.14-1,6.86-3.24,8-6.56a5.87,5.87,0,0,0-4-7.77c-4.84-1.12-11.48,4.9-13.75,8.7-.14.23-1.32,2.83-2,4.48.27-1,.55-2,.82-3.11.55-2.11,1-4.23,1.57-6.52l.66-3.36c.25-1.12.36-2.34.55-3.51.38-2.74.63-5.54.82-8.36,1.85.48,8.44,2.08,11.73,1.53s7.27-2.16,8.89-5.27a5.87,5.87,0,0,0-2.79-8.29c-4.61-1.84-12.08,3.1-14.91,6.52-.18.21-1.93,2.89-2.87,4.38.11-1.69.21-3.38.26-5.1.13-5,.11-10,.12-15q0-2.29,0-4.59c.65.17,8.45,2.25,12.13,1.63,3.26-.55,7.27-2.16,8.9-5.27a5.9,5.9,0,0,0-2.79-8.3c-4.62-1.84-12.09,3.11-14.92,6.52-.21.26-2.73,4.12-3.32,5.14,0-3.38.09-6.74.28-10.05A102.41,102.41,0,0,1,157.88,333c.3.09,8.43,2.29,12.19,1.65,3.27-.55,7.28-2.16,8.9-5.27a5.87,5.87,0,0,0-2.79-8.29c-4.61-1.84-12.08,3.1-14.91,6.52-.19.22-2.11,3.16-3,4.58l-.26-.1a75.46,75.46,0,0,1,4-12.91c.91-2.3,1.91-4.46,2.93-6.54,1.48.57,8.23,3.07,11.68,2.88s7.47-1.35,9.43-4.26a5.88,5.88,0,0,0-1.87-8.55c-4.38-2.34-12.35,1.76-15.54,4.84-.17.17-1.74,2.07-2.87,3.47.48-.93,1-1.9,1.42-2.78,1.77-3.31,3.59-6.24,5.22-8.82.95-1.46,1.83-2.76,2.66-4,1.74-.2,8.71-1.09,11.63-2.82s6-4.64,6.4-8.12A5.87,5.87,0,0,0,187.5,277.78Z"></path></g></g><g id="freepik--Device--inject-5"><rect x="138" y="51" width="217" height="402" style="fill:#fff"></rect><path d="M343.73,30.56H153.26A17.28,17.28,0,0,0,136,47.84V452.42a17.29,17.29,0,0,0,17.28,17.29H343.73A17.29,17.29,0,0,0,361,452.42V47.84A17.28,17.28,0,0,0,343.73,30.56ZM351,443.64H146V60.38H351Z" style="fill:#263238"></path><rect x="327.03" y="64.36" width="17" height="9.32" style="fill:none;stroke:#263238;stroke-linecap:round;stroke-linejoin:round;stroke-width:0.821067px"></rect><rect x="327.03" y="64.36" width="13.26" height="9.32" style="fill:#263238;stroke:#263238;stroke-linecap:round;stroke-linejoin:round;stroke-width:0.725073px"></rect><rect x="343.99" y="66.96" width="2.39" height="4.11" style="fill:#263238;stroke:#263238;stroke-linecap:round;stroke-linejoin:round;stroke-width:0.725073px"></rect><rect x="150.6" y="67.25" width="3.12" height="5.34" style="fill:#263238;stroke:#263238;stroke-linecap:round;stroke-linejoin:round;stroke-width:0.8830859999999999px"></rect><rect x="155.5" y="65.37" width="3.12" height="7.22" style="fill:#263238;stroke:#263238;stroke-linecap:round;stroke-linejoin:round;stroke-width:0.8830859999999999px"></rect><rect x="160.4" y="63.16" width="3.12" height="9.44" style="fill:#263238;stroke:#263238;stroke-linecap:round;stroke-linejoin:round;stroke-width:0.8830859999999999px"></rect><rect x="149.29" y="78.86" width="196.87" height="14.8" style="fill:#FD0030"></rect></g><g id="freepik--speech-bubble--inject-5"><path d="M316.08,102.2H192.55a3.46,3.46,0,0,0-3.46,3.46v52.58a3.45,3.45,0,0,0,3.46,3.45H289.7l-2.37,18,13.62-18h15.13a3.44,3.44,0,0,0,3.45-3.45V105.66A3.45,3.45,0,0,0,316.08,102.2Z" style="fill:#263238"></path><path d="M313.84,99.26H190.31a3.45,3.45,0,0,0-3.46,3.45v52.58a3.45,3.45,0,0,0,3.46,3.45h97.15l-2.37,18,13.62-18h15.13a3.45,3.45,0,0,0,3.45-3.45V102.71A3.45,3.45,0,0,0,313.84,99.26Z" style="fill:#fff;stroke:#263238;stroke-linecap:round;stroke-linejoin:round"></path><line x1="202.13" y1="115.08" x2="299.83" y2="115.08" style="fill:none;stroke:#263238;stroke-linecap:round;stroke-linejoin:round"></line><line x1="202.13" y1="124.91" x2="299.83" y2="124.91" style="fill:none;stroke:#263238;stroke-linecap:round;stroke-linejoin:round"></line><line x1="202.13" y1="134.73" x2="299.83" y2="134.73" style="fill:none;stroke:#263238;stroke-linecap:round;stroke-linejoin:round"></line><line x1="202.13" y1="144.55" x2="299.83" y2="144.55" style="fill:none;stroke:#263238;stroke-linecap:round;stroke-linejoin:round"></line></g><g id="freepik--Character--inject-5"><path d="M307.77,444c-5.23-40.38-12-67.72-12-67.72l-81.28-1.23S212.67,408.39,211,444Z" style="fill:#263238;stroke:#263238;stroke-linecap:round;stroke-miterlimit:10"></path><path d="M298,386.08c-1.35-6.31-2.21-9.8-2.21-9.8l-81.28-1.23s-.23,4.13-.6,11Z" style="fill:#fff;stroke:#263238;stroke-linecap:round;stroke-miterlimit:10"></path><rect x="248" y="379.55" width="17.97" height="6.94" style="fill:#fff;stroke:#263238;stroke-linecap:round;stroke-miterlimit:10"></rect><rect x="227.17" y="378.32" width="4.08" height="10.62" style="fill:#263238;stroke:#263238;stroke-linecap:round;stroke-miterlimit:10"></rect><rect x="280.68" y="378.32" width="4.08" height="10.62" style="fill:#263238;stroke:#263238;stroke-linecap:round;stroke-miterlimit:10"></rect><path d="M240.3,260.3s-33.72,5.49-34.12,7.84,6.28,106.67,6.28,106.67.78,5.88,3.14,5.88h77.64s6.28-1.57,7.45-7.06-.39-106.28-.39-106.28l-43.53-9.8Z" style="fill:#fff;stroke:#263238;stroke-linecap:round;stroke-linejoin:round"></path><polyline points="259.03 273.82 259.07 316.35 265.06 316.35 263.86 307.17" style="fill:#fff;stroke:#263238;stroke-linecap:round;stroke-linejoin:round"></polyline><path d="M248.44,238.82s-2.94,20-2.94,21.18S257,273.24,259,273.83s11.17-12.95,11.17-12.95l-1.47-19.7Z" style="fill:#fff;stroke:#263238;stroke-linecap:round;stroke-linejoin:round"></path><path d="M269,244.8l-.27-3.62-20.29-2.36s-.75,5.07-1.49,10.25C251,250.51,258,250.85,269,244.8Z" style="fill:#263238;stroke:#263238;stroke-linecap:round;stroke-linejoin:round"></path><path d="M236.29,178.49s-5.84,3.4-5.84,8,4.86,28.43,4.86,28.43-1.94-2.19-4.86.48-1,12.4,2.92,13.12,5.35-.48,5.35-.48,1.45,10.69,5.58,12.15,14.34,9.72,22.12,6.8,17.73-9.72,17.73-15.31-2.67-37.17-2.67-37.17,2.92-11.42.73-15.8-22.11-7.29-28.92-7.29S236.29,178.49,236.29,178.49Z" style="fill:#fff;stroke:#263238;stroke-linecap:round;stroke-linejoin:round"></path><path d="M253.29,171.44c-6.8,0-17,7.05-17,7.05s-5.84,3.4-5.84,8,4.86,28.43,4.86,28.43h3.41s-1.95-7.05.48-9.48,6.8-5.59,6.56-7.77-5.1-3.41-1.7-9.24,13.12-4.62,14.82-4.13,3.89,2.67,7.29,2.67,5.35-3.88,9.48-3.88,5.83,11.42,5.83,11.42,2.92-11.42.73-15.8S260.1,171.44,253.29,171.44Z" style="fill:#263238;stroke:#263238;stroke-linecap:round;stroke-linejoin:round"></path><path d="M234,214.19l1.29.75A2.83,2.83,0,0,0,234,214.19Z" style="fill:none;stroke:#263238;stroke-linecap:round;stroke-linejoin:round"></path><path d="M268.6,207.4s1,6.32,3.4,8,2.19,5.11-1.21,5.59a28.56,28.56,0,0,1-6.07.24" style="fill:none;stroke:#263238;stroke-linecap:round;stroke-linejoin:round"></path><path d="M268.36,229.52c0,1.07-.6,1.94-1.34,1.94s-1.33-.87-1.33-1.94.6-2,1.33-2S268.36,228.44,268.36,229.52Z" style="fill:#263238"></path><path d="M248.92,204.25s1-2.92,9.48-2.92" style="fill:none;stroke:#263238;stroke-linecap:round;stroke-linejoin:round;stroke-width:2px"></path><path d="M269.33,200.84s5.1-2.67,10,2.19" style="fill:none;stroke:#263238;stroke-linecap:round;stroke-linejoin:round;stroke-width:2px"></path><path d="M250.38,211.54s4.62,1.7,8.26-.49" style="fill:none;stroke:#263238;stroke-linecap:round;stroke-linejoin:round"></path><path d="M272,209.83s3.65,1.95,6.81.49" style="fill:none;stroke:#263238;stroke-linecap:round;stroke-linejoin:round"></path><polygon points="246.09 252.94 255.2 271.77 244.62 286.47 235.5 260.59 246.09 252.94" style="fill:#fff;stroke:#263238;stroke-linecap:round;stroke-linejoin:round"></polygon><polygon points="262.26 270.88 272.56 287.06 277.85 262.35 270.79 255.3 262.26 270.88" style="fill:#fff;stroke:#263238;stroke-linecap:round;stroke-linejoin:round"></polygon><path d="M206.18,268.14l-11.37,41.18-5.88-16.08-8.63,4.7s1.57,49,2.35,51.77S196,362.26,198.73,359.9s11.77-25.09,11.77-25.09Z" style="fill:#fff;stroke:#263238;stroke-linecap:round;stroke-linejoin:round"></path><line x1="194.81" y1="309.32" x2="204.61" y2="335.59" style="fill:#fff;stroke:#263238;stroke-linecap:round;stroke-linejoin:round"></line><path d="M187.32,286.34s-3.11-4.92-5.18-6.22-7.25-1.81-10.1-2.85-4.14,0-3.63,1.3,3.89,2.33,5.44,3.11a12.2,12.2,0,0,1,3.11,2.59s-10.36,4.14-11.14,4.14-14,4.15-15.28,5.7,2.85,1.81,2.85,1.81-4.41,1.56-2.33,2.85,9.58-.51,9.58-.51h6a154.11,154.11,0,0,0,16.32-1.3c3.63-.52,5.28-.71,6-3.72S187.32,286.34,187.32,286.34Z" style="fill:#fff;stroke:#263238;stroke-linecap:round;stroke-linejoin:round"></path><path d="M166.08,293.59s-8.81-11.91-8.81-8.55,4.67,12.18,7,12.7,8,.26,8,.26" style="fill:#fff;stroke:#263238;stroke-linecap:round;stroke-linejoin:round"></path><path d="M186.81,295.92c-2.08,1.56-15.29,4.15-16.32,3.89S163,287.89,163,285.56s-.51-4.14,2.08-2.07,6.47,10.88,6.47,10.88,10.1-4.4,12.69-4.4h3.37" style="fill:#fff;stroke:#263238;stroke-linecap:round;stroke-linejoin:round"></path><path d="M191.46,300.16l-2.53-6.92-8.63,4.7s.09,2.76.23,7A13.74,13.74,0,0,0,191.46,300.16Z" style="fill:#fff;stroke:#263238;stroke-linecap:round;stroke-linejoin:round"></path><path d="M322.11,250.9s2.39-18.56,3.65-20.45,9.14-18.28,10.08-19.22,4.1.31,3.15,2.83-4.72,10.09-4.72,11.35a24.7,24.7,0,0,0,.31,3.15s4.1,2.52,6,5.36,1.58,6.93.32,9.45-7.4,8.74-7.4,8.74l-.06,3.74Z" style="fill:#fff;stroke:#263238;stroke-linecap:round;stroke-linejoin:round"></path><path d="M325.44,248.42s-2.52-7.25-1.89-10.09,4.1-7.25,5-7.88,6.94-2.52,8.2-1.26-1.89,4.41-1.89,4.41l-4.1,2.21a21.86,21.86,0,0,1,1.26,10.71" style="fill:#fff;stroke:#263238;stroke-linecap:round;stroke-linejoin:round"></path><path d="M334.58,227.35a2.53,2.53,0,0,1,3.78.9c1.61,2.51-.18,7.91-1.44,10.61s-3.78,3.06-3.78,1.8,1.26-8.82,1.26-9.54.18-2.56.18-2.56Z" style="fill:#fff;stroke:#263238;stroke-linecap:round;stroke-linejoin:round"></path><path d="M338.36,228.25s2.87-.36,4.31,3.05-2.16,9.72-3.23,10.62-3.24-.18-2.88-1.62,2.52-8.46,2.52-8.46Z" style="fill:#fff;stroke:#263238;stroke-linecap:round;stroke-linejoin:round"></path><path d="M343.39,232.2s2.34,3.24,2.52,5.22-2.34,5.4-3.06,5.58-1.44-.36-1.26-1.62,1.26-6.12,1.26-6.12Z" style="fill:#fff;stroke:#263238;stroke-linecap:round;stroke-linejoin:round"></path><path d="M300.3,267.35l16.29,30.32,5.52-46.77,11.32,4.95s4.13,32.39,4.13,48.56-4.71,29.12-8.53,35-10.59,4.12-18.24-3.53-10-14.41-10-14.41Z" style="fill:#fff;stroke:#263238;stroke-linecap:round;stroke-linejoin:round"></path><line x1="321.97" y1="260.17" x2="334.09" y2="264.64" style="fill:#fff;stroke:#263238;stroke-linecap:round;stroke-linejoin:round"></line><line x1="315.61" y1="312.12" x2="315.42" y2="315.03" style="fill:#fff;stroke:#263238;stroke-linecap:round;stroke-linejoin:round"></line><line x1="316.59" y1="297.67" x2="315.84" y2="308.77" style="fill:#fff;stroke:#263238;stroke-linecap:round;stroke-linejoin:round"></line></g><g id="freepik--Icons--inject-5"><circle cx="76.57" cy="59.65" r="17.03" style="fill:#FD0030"></circle><rect x="64.87" y="56.46" width="7.2" height="12.22" rx="0.87" style="fill:#fff"></rect><path d="M86.86,58.23c1.82-2.68-.69-3.48-.69-3.48H79.6l.12-.57s.57-4.46-.17-5.83S76.12,46.41,76,46.92s.06,2.8-.17,4.06a42.82,42.82,0,0,1-2.51,6,1.85,1.85,0,0,1-.4.4V67.55a2.62,2.62,0,0,0,1.48.39h9.54a2.21,2.21,0,0,0,1.49-2.8,2.78,2.78,0,0,0,1.26-3.25A2.23,2.23,0,0,0,86.86,58.23Z" style="fill:#fff"></path><circle cx="404.5" cy="399.35" r="30.76" transform="translate(-58.24 69.24) rotate(-9.13)" style="fill:#FD0030"></circle><rect x="383.36" y="393.59" width="13" height="22.08" rx="1.57" style="fill:#fff"></rect><path d="M423.09,396.79c3.3-4.85-1.24-6.3-1.24-6.3H410l.2-1s1-8-.31-10.52-6.19-3.51-6.4-2.58.11,5.05-.31,7.32-4,9.91-4.54,10.84a3,3,0,0,1-.71.73v18.37a4.66,4.66,0,0,0,2.67.71h17.24a4,4,0,0,0,2.68-5.05c3.61-2.58,2.27-5.89,2.27-5.89C426.91,399.88,423.09,396.79,423.09,396.79Z" style="fill:#fff"></path><circle cx="167.33" cy="234.56" r="27.46" transform="translate(-49.95 45.33) rotate(-13.44)" style="fill:#FD0030"></circle><path d="M184.24,229.6a9.09,9.09,0,0,0-17-4.52,9.09,9.09,0,0,0-17,4.52c0,4.19,3.2,7.89,5.82,10.86,3.52,4,10.87,10.87,10.87,10.87s7.93-6.87,11.45-10.87C181.19,237.34,184.24,234,184.24,229.6Z" style="fill:#fff"></path><circle cx="393" cy="145" r="17.25" style="fill:#FD0030"></circle><path d="M403.62,141.89A5.71,5.71,0,0,0,393,139.05a5.71,5.71,0,0,0-10.66,2.84c0,2.63,2,5,3.66,6.82,2.21,2.51,6.82,6.82,6.82,6.82s5-4.31,7.2-6.82C401.71,146.75,403.62,144.67,403.62,141.89Z" style="fill:#fff"></path><circle cx="72" cy="377" r="17.25" style="fill:#FD0030"></circle><path d="M82.62,373.89A5.71,5.71,0,0,0,72,371.05a5.71,5.71,0,0,0-10.66,2.84c0,2.63,2,5,3.66,6.82,2.21,2.51,6.82,6.82,6.82,6.82s5-4.31,7.2-6.82C80.71,378.75,82.62,376.67,82.62,373.89Z" style="fill:#fff"></path><circle cx="191.9" cy="163.13" r="17.03" style="fill:#FD0030"></circle><rect x="180.2" y="159.94" width="7.2" height="12.22" rx="0.87" style="fill:#fff"></rect><path d="M202.19,161.71c1.83-2.68-.69-3.48-.69-3.48h-6.57l.12-.58s.57-4.45-.17-5.82-3.43-1.94-3.54-1.43,0,2.8-.18,4.06a40,40,0,0,1-2.51,6,1.59,1.59,0,0,1-.39.41V171a2.62,2.62,0,0,0,1.48.39h9.54a2.2,2.2,0,0,0,1.48-2.8,2.78,2.78,0,0,0,1.26-3.25A2.23,2.23,0,0,0,202.19,161.71Z" style="fill:#fff"></path></g></svg>
